 solid SafeWork_Object 
    facet normal 0.923656 -0.002889 0.383211
      outer loop
        vertex 213.621902 41.093979 -21.304562
        vertex 213.743134 696.856995 -16.652538
        vertex 208.345917 41.518631 -8.584624
        endloop
    endfacet
    facet normal 0.382046 -0.006626 0.924119
      outer loop
        vertex 208.345917 41.518631 -8.584624
        vertex 208.467133 697.281738 -3.932589
        vertex 195.861664 41.692963 -3.422176
        endloop
    endfacet
    facet normal -0.400938 -0.006425 0.916083
      outer loop
        vertex 195.861664 41.692963 -3.422176
        vertex 195.982788 697.456116 1.229874
        vertex 183.603668 697.277832 -4.189297
        endloop
    endfacet
    facet normal -0.931119 -0.002415 0.364707
      outer loop
        vertex 183.482330 41.514740 -8.841327
        vertex 183.603668 697.277832 -4.189297
        vertex 178.580902 696.851440 -17.015554
        endloop
    endfacet
    facet normal -0.923654 0.002889 -0.383217
      outer loop
        vertex 178.459656 41.088371 -21.667625
        vertex 178.580902 696.851440 -17.015554
        vertex 183.856995 696.426697 -29.735519
        endloop
    endfacet
    facet normal -0.382050 0.006627 -0.924118
      outer loop
        vertex 183.735733 40.663567 -34.387619
        vertex 183.856995 696.426697 -29.735519
        vertex 196.341171 696.252441 -34.897991
        endloop
    endfacet
    facet normal 0.400933 0.006425 -0.916085
      outer loop
        vertex 196.219910 40.489311 -39.550110
        vertex 196.341171 696.252441 -34.897991
        vertex 208.599213 40.667496 -34.130947
        endloop
    endfacet
    facet normal 0.931122 0.002415 -0.364699
      outer loop
        vertex 208.599213 40.667496 -34.130947
        vertex 208.720428 696.430542 -29.478815
        vertex 213.621902 41.093979 -21.304562
        endloop
    endfacet
    facet normal -0.000471 0.000002 1.000000
      outer loop
        vertex 260.183472 912.435852 -5.645440
        vertex 250.183533 912.436035 -5.650154
        vertex 250.181152 821.338013 -5.649971
        endloop
    endfacet
    facet normal -1.000000 0.000026 -0.000475
      outer loop
        vertex 250.181152 821.338013 -5.649971
        vertex 250.183533 912.436035 -5.650154
        vertex 250.192596 821.338013 -29.733978
        endloop
    endfacet
    facet normal 0.000473 -0.000002 -1.000000
      outer loop
        vertex 250.192596 821.338013 -29.733978
        vertex 250.194931 912.436035 -29.734171
        vertex 260.194885 912.435852 -29.729445
        endloop
    endfacet
    facet normal 1.000000 -0.000026 0.000474
      outer loop
        vertex 260.192505 821.337769 -29.729267
        vertex 260.194885 912.435852 -29.729445
        vertex 260.183472 912.435852 -5.645440
        endloop
    endfacet
    facet normal -0.000024 -1.000000 0.000000
      outer loop
        vertex 260.181091 821.337769 -5.645257
        vertex 250.181152 821.338013 -5.649971
        vertex 250.192596 821.338013 -29.733978
        endloop
    endfacet
    facet normal 0.000018 1.000000 0.000000
      outer loop
        vertex 250.183533 912.436035 -5.650154
        vertex 260.183472 912.435852 -5.645440
        vertex 250.194931 912.436035 -29.734171
        endloop
    endfacet
    facet normal -0.000476 0.000002 1.000000
      outer loop
        vertex 140.236328 912.312256 -5.801489
        vertex 130.236328 912.312317 -5.806253
        vertex 140.233948 821.214111 -5.801351
        endloop
    endfacet
    facet normal -1.000000 0.000025 -0.000475
      outer loop
        vertex 130.234039 821.214478 -5.806046
        vertex 130.236328 912.312317 -5.806253
        vertex 130.247375 912.312317 -29.076000
        endloop
    endfacet
    facet normal 0.000472 -0.000002 -1.000000
      outer loop
        vertex 130.245026 821.214294 -29.075806
        vertex 130.247375 912.312317 -29.076000
        vertex 140.244980 821.214111 -29.071081
        endloop
    endfacet
    facet normal 1.000000 -0.000026 0.000474
      outer loop
        vertex 140.244980 821.214111 -29.071081
        vertex 140.247314 912.312012 -29.071236
        vertex 140.233948 821.214111 -5.801351
        endloop
    endfacet
    facet normal -0.000037 -1.000000 0.000008
      outer loop
        vertex 140.233948 821.214111 -5.801351
        vertex 130.234039 821.214478 -5.806046
        vertex 130.245026 821.214294 -29.075806
        endloop
    endfacet
    facet normal 0.000006 1.000000 -0.000010
      outer loop
        vertex 130.236328 912.312317 -5.806253
        vertex 140.236328 912.312256 -5.801489
        vertex 140.247314 912.312012 -29.071236
        endloop
    endfacet
    facet normal 0.011310 -0.006415 0.999915
      outer loop
        vertex 260.528229 821.252930 -5.486589
        vertex 252.350433 827.006531 -5.357174
        vertex 208.109100 746.748169 -5.371641
        endloop
    endfacet
    facet normal -0.817780 0.575385 0.012937
      outer loop
        vertex 199.931305 752.501953 -5.242267
        vertex 252.350433 827.006531 -5.357174
        vertex 252.073593 827.163574 -29.841597
        endloop
    endfacet
    facet normal -0.011310 0.006415 -0.999915
      outer loop
        vertex 199.654419 752.658997 -29.726665
        vertex 252.073593 827.163574 -29.841597
        vertex 207.832153 746.905212 -29.856081
        endloop
    endfacet
    facet normal 0.817781 -0.575384 -0.012941
      outer loop
        vertex 207.832153 746.905212 -29.856081
        vertex 260.251282 821.409912 -29.970978
        vertex 208.109100 746.748169 -5.371641
        endloop
    endfacet
    facet normal -0.575415 -0.817860 0.001261
      outer loop
        vertex 208.109100 746.748169 -5.371641
        vertex 199.931305 752.501953 -5.242267
        vertex 199.654419 752.658997 -29.726665
        endloop
    endfacet
    facet normal 0.575403 0.817869 -0.001260
      outer loop
        vertex 252.350433 827.006531 -5.357174
        vertex 260.528229 821.252930 -5.486589
        vertex 252.073593 827.163574 -29.841597
        endloop
    endfacet
    facet normal 0.003196 0.004215 0.999986
      outer loop
        vertex 138.051178 826.771729 -6.481009
        vertex 130.047607 820.776855 -6.430162
        vertex 184.661530 747.865723 -6.297370
        endloop
    endfacet
    facet normal -0.800360 -0.599498 0.005086
      outer loop
        vertex 184.661530 747.865723 -6.297370
        vertex 130.047607 820.776855 -6.430162
        vertex 184.585999 747.766113 -29.922216
        endloop
    endfacet
    facet normal -0.003196 -0.004215 -0.999986
      outer loop
        vertex 184.585999 747.766113 -29.922216
        vertex 129.972198 820.677490 -30.054972
        vertex 137.975647 826.672241 -30.105822
        endloop
    endfacet
    facet normal 0.800360 0.599498 -0.005083
      outer loop
        vertex 192.589539 753.760986 -29.973095
        vertex 137.975647 826.672241 -30.105822
        vertex 138.051178 826.771729 -6.481009
        endloop
    endfacet
    facet normal 0.599499 -0.800374 0.001458
      outer loop
        vertex 192.665070 753.860474 -6.348251
        vertex 184.661530 747.865723 -6.297370
        vertex 184.585999 747.766113 -29.922216
        endloop
    endfacet
    facet normal -0.599506 0.800369 -0.001453
      outer loop
        vertex 130.047607 820.776855 -6.430162
        vertex 138.051178 826.771729 -6.481009
        vertex 129.972198 820.677490 -30.054972
        endloop
    endfacet
    facet normal 0.927512 -0.000023 0.373794
      outer loop
        vertex 214.861374 693.287659 -17.003147
        vertex 214.863358 771.198120 -17.003296
        vertex 209.449127 693.287842 -3.573493
        endloop
    endfacet
    facet normal 0.391724 -0.000008 0.920083
      outer loop
        vertex 209.449127 693.287842 -3.573493
        vertex 209.451111 771.198425 -3.573650
        vertex 196.397430 771.198608 1.983945
        endloop
    endfacet
    facet normal -0.392600 0.000013 0.919709
      outer loop
        vertex 196.395447 693.288269 1.984177
        vertex 196.397430 771.198608 1.983945
        vertex 183.347092 693.288574 -3.585829
        endloop
    endfacet
    facet normal -0.927866 0.000025 0.372914
      outer loop
        vertex 183.347092 693.288574 -3.585829
        vertex 183.349121 771.199036 -3.585979
        vertex 177.947571 693.288635 -17.020634
        endloop
    endfacet
    facet normal -0.927511 0.000023 -0.373795
      outer loop
        vertex 177.947571 693.288635 -17.020634
        vertex 177.949554 771.199219 -17.020815
        vertex 183.361816 771.199036 -30.450470
        endloop
    endfacet
    facet normal -0.391727 0.000008 -0.920081
      outer loop
        vertex 183.359833 693.288452 -30.450323
        vertex 183.361816 771.199036 -30.450470
        vertex 196.415482 771.198608 -36.008106
        endloop
    endfacet
    facet normal 0.392596 -0.000012 -0.919711
      outer loop
        vertex 196.413391 693.288086 -36.007946
        vertex 196.415482 771.198608 -36.008106
        vertex 209.461792 693.287842 -30.437994
        endloop
    endfacet
    facet normal 0.927866 -0.000025 -0.372913
      outer loop
        vertex 209.461792 693.287842 -30.437994
        vertex 209.463837 771.198242 -30.438133
        vertex 214.863358 771.198120 -17.003296
        endloop
    endfacet
    facet normal -0.001233 0.385475 -0.922718
      outer loop
        vertex 254.926300 895.683105 -34.753334
        vertex 133.859863 895.328308 -34.739788
        vertex 254.892197 907.502136 -29.815769
        endloop
    endfacet
    facet normal -0.002753 0.924991 -0.379979
      outer loop
        vertex 254.892197 907.502136 -29.815769
        vertex 133.825714 907.147339 -29.802296
        vertex 133.812988 911.946533 -18.119413
        endloop
    endfacet
    facet normal -0.002644 0.917208 0.398401
      outer loop
        vertex 254.879456 912.301331 -18.132875
        vertex 133.812988 911.946533 -18.119413
        vertex 133.829041 906.914673 -6.534841
        endloop
    endfacet
    facet normal -0.000972 0.366933 0.930247
      outer loop
        vertex 254.895477 907.269409 -6.548328
        vertex 133.829041 906.914673 -6.534841
        vertex 254.930878 895.354004 -1.848292
        endloop
    endfacet
    facet normal 0.001233 -0.385472 0.922719
      outer loop
        vertex 254.930878 895.354004 -1.848292
        vertex 133.864471 894.999084 -1.834767
        vertex 133.898621 883.180054 -6.772296
        endloop
    endfacet
    facet normal 0.002753 -0.924991 0.379978
      outer loop
        vertex 254.964981 883.534851 -6.785781
        vertex 133.898621 883.180054 -6.772296
        vertex 254.977722 878.735657 -18.468685
        endloop
    endfacet
    facet normal 0.002642 -0.917205 -0.398406
      outer loop
        vertex 254.977722 878.735657 -18.468685
        vertex 133.911407 878.381042 -18.455181
        vertex 133.895386 883.412964 -30.039701
        endloop
    endfacet
    facet normal 0.000971 -0.366936 -0.930246
      outer loop
        vertex 254.961700 883.767700 -30.053255
        vertex 133.895386 883.412964 -30.039701
        vertex 254.926300 895.683105 -34.753334
        endloop
    endfacet
    facet normal -0.377580 -0.189670 0.906344
      outer loop
        vertex 195.173462 -67.892914 -25.237663
        vertex 195.173370 32.872543 -4.150593
        vertex 184.870483 33.733082 -8.262665
        endloop
    endfacet
    facet normal -0.921730 -0.079441 0.379609
      outer loop
        vertex 184.870483 -67.032433 -29.349787
        vertex 184.870483 33.733082 -8.262665
        vertex 180.602844 35.810585 -18.190165
        endloop
    endfacet
    facet normal -0.921731 0.079440 -0.379607
      outer loop
        vertex 180.602844 -64.954948 -39.277252
        vertex 180.602844 35.810585 -18.190165
        vertex 184.870483 -62.877350 -49.204796
        endloop
    endfacet
    facet normal -0.377580 0.189670 -0.906343
      outer loop
        vertex 184.870483 -62.877350 -49.204796
        vertex 184.870483 37.888145 -28.117668
        vertex 195.173416 38.748665 -32.229763
        endloop
    endfacet
    facet normal 0.377581 0.189669 -0.906343
      outer loop
        vertex 195.173462 -62.016869 -53.316833
        vertex 195.173416 38.748665 -32.229763
        vertex 205.476349 37.888069 -28.117674
        endloop
    endfacet
    facet normal 0.921730 0.079440 -0.379609
      outer loop
        vertex 205.476349 -62.877388 -49.204750
        vertex 205.476349 37.888069 -28.117674
        vertex 209.743988 -64.954948 -39.277233
        endloop
    endfacet
    facet normal 0.921731 -0.079440 0.379607
      outer loop
        vertex 209.743988 -64.954948 -39.277233
        vertex 209.743988 35.810623 -18.190109
        vertex 205.476410 33.733063 -8.262693
        endloop
    endfacet
    facet normal 0.377578 -0.189669 0.906344
      outer loop
        vertex 205.476349 -67.032471 -29.349726
        vertex 205.476410 33.733063 -8.262693
        vertex 195.173462 -67.892914 -25.237663
        endloop
    endfacet
    facet normal -0.843962 -0.199740 0.497827
      outer loop
        vertex 196.436691 -32.322388 -22.831953
        vertex 195.051575 -23.530121 -21.652458
        vertex 194.418213 -23.532448 -22.727125
        endloop
    endfacet
    facet normal -0.258970 -0.168388 0.951094
      outer loop
        vertex 196.436691 -32.322388 -22.831953
        vertex 196.470718 -23.523407 -21.264856
        vertex 195.051575 -23.530121 -21.652458
        endloop
    endfacet
    facet normal 0.353753 -0.165329 0.920611
      outer loop
        vertex 196.436691 -32.322388 -22.831953
        vertex 197.844360 -23.516159 -21.791389
        vertex 196.470718 -23.523407 -21.264856
        endloop
    endfacet
    facet normal 0.891176 -0.191073 0.411458
      outer loop
        vertex 196.436691 -32.322388 -22.831953
        vertex 198.367889 -23.512726 -22.923706
        vertex 197.844360 -23.516159 -21.791389
        endloop
    endfacet
    facet normal 0.845916 -0.190624 -0.498085
      outer loop
        vertex 196.436691 -32.322388 -22.831953
        vertex 197.734558 -23.515091 -23.998411
        vertex 198.367889 -23.512726 -22.923706
        endloop
    endfacet
    facet normal 0.260627 -0.164404 -0.951338
      outer loop
        vertex 196.436691 -32.322388 -22.831953
        vertex 196.315491 -23.521767 -24.386023
        vertex 197.734558 -23.515091 -23.998411
        endloop
    endfacet
    facet normal -0.352059 -0.167462 -0.920875
      outer loop
        vertex 196.436691 -32.322388 -22.831953
        vertex 194.941742 -23.529015 -23.859509
        vertex 196.315491 -23.521767 -24.386023
        endloop
    endfacet
    facet normal -0.889249 -0.199293 -0.411726
      outer loop
        vertex 196.436691 -32.322388 -22.831953
        vertex 194.418213 -23.532448 -22.727125
        vertex 194.941742 -23.529015 -23.859509
        endloop
    endfacet
    facet normal -0.843964 -0.199732 0.497828
      outer loop
        vertex 195.051575 -23.530121 -21.652458
        vertex 193.666504 -14.737701 -20.472986
        vertex 194.418213 -23.532448 -22.727125
        endloop
    endfacet
    facet normal -0.258970 -0.168384 0.951095
      outer loop
        vertex 196.470718 -23.523407 -21.264856
        vertex 196.504791 -14.724312 -19.697763
        vertex 195.051575 -23.530121 -21.652458
        endloop
    endfacet
    facet normal 0.353753 -0.165328 0.920612
      outer loop
        vertex 197.844360 -23.516159 -21.791389
        vertex 199.252136 -14.709892 -20.750864
        vertex 196.504791 -14.724312 -19.697763
        endloop
    endfacet
    facet normal 0.891183 -0.191077 0.411440
      outer loop
        vertex 198.367889 -23.512726 -22.923706
        vertex 200.299103 -14.703026 -23.015411
        vertex 199.252136 -14.709892 -20.750864
        endloop
    endfacet
    facet normal 0.845916 -0.190624 -0.498085
      outer loop
        vertex 197.734558 -23.515091 -23.998411
        vertex 199.032471 -14.707756 -25.164812
        vertex 198.367889 -23.512726 -22.923706
        endloop
    endfacet
    facet normal 0.260627 -0.164399 -0.951339
      outer loop
        vertex 196.315491 -23.521767 -24.386023
        vertex 196.194229 -14.721260 -25.940044
        vertex 197.734558 -23.515091 -23.998411
        endloop
    endfacet
    facet normal -0.352097 -0.167454 -0.920862
      outer loop
        vertex 194.941742 -23.529015 -23.859509
        vertex 193.446930 -14.735603 -24.886992
        vertex 196.194229 -14.721260 -25.940044
        endloop
    endfacet
    facet normal -0.889220 -0.199287 -0.411791
      outer loop
        vertex 194.418213 -23.532448 -22.727125
        vertex 192.399780 -14.742432 -22.622473
        vertex 193.446930 -14.735603 -24.886992
        endloop
    endfacet
    facet normal -0.843974 -0.199742 0.497806
      outer loop
        vertex 193.666504 -14.737701 -20.472986
        vertex 192.281372 -5.945473 -19.293491
        vertex 192.399780 -14.742432 -22.622473
        endloop
    endfacet
    facet normal -0.258978 -0.168385 0.951092
      outer loop
        vertex 196.504791 -14.724312 -19.697763
        vertex 196.538818 -5.925255 -18.130676
        vertex 193.666504 -14.737701 -20.472986
        endloop
    endfacet
    facet normal 0.353737 -0.165333 0.920617
      outer loop
        vertex 199.252136 -14.709892 -20.750864
        vertex 200.659912 -5.903664 -19.710285
        vertex 196.538818 -5.925255 -18.130676
        endloop
    endfacet
    facet normal 0.891181 -0.191083 0.411440
      outer loop
        vertex 200.299103 -14.703026 -23.015411
        vertex 202.230347 -5.893364 -23.107069
        vertex 200.659912 -5.903664 -19.710285
        endloop
    endfacet
    facet normal 0.845918 -0.190636 -0.498076
      outer loop
        vertex 199.032471 -14.707756 -25.164812
        vertex 200.330475 -5.900345 -26.331308
        vertex 200.299103 -14.703026 -23.015411
        endloop
    endfacet
    facet normal 0.260629 -0.164404 -0.951338
      outer loop
        vertex 196.194229 -14.721260 -25.940044
        vertex 196.073029 -5.920563 -27.494123
        vertex 199.032471 -14.707756 -25.164812
        endloop
    endfacet
    facet normal -0.352104 -0.167457 -0.920859
      outer loop
        vertex 193.446930 -14.735603 -24.886992
        vertex 191.952026 -5.942116 -25.914480
        vertex 196.073029 -5.920563 -27.494123
        endloop
    endfacet
    facet normal -0.889234 -0.199277 -0.411766
      outer loop
        vertex 192.399780 -14.742432 -22.622473
        vertex 190.381439 -5.952492 -22.517683
        vertex 191.952026 -5.942116 -25.914480
        endloop
    endfacet
    facet normal -0.843992 -0.199735 0.497778
      outer loop
        vertex 192.281372 -5.945473 -19.293491
        vertex 190.896271 2.846870 -18.114006
        vertex 190.381439 -5.952492 -22.517683
        endloop
    endfacet
    facet normal -0.258968 -0.168392 0.951094
      outer loop
        vertex 196.538818 -5.925255 -18.130676
        vertex 196.572845 2.873840 -16.563522
        vertex 192.281372 -5.945473 -19.293491
        endloop
    endfacet
    facet normal 0.353746 -0.165328 0.920614
      outer loop
        vertex 200.659912 -5.903664 -19.710285
        vertex 202.067535 2.902603 -18.669693
        vertex 196.572845 2.873840 -16.563522
        endloop
    endfacet
    facet normal 0.891177 -0.191074 0.411453
      outer loop
        vertex 202.230347 -5.893364 -23.107069
        vertex 204.161560 2.916355 -23.198812
        vertex 202.067535 2.902603 -18.669693
        endloop
    endfacet
    facet normal 0.845936 -0.190622 -0.498052
      outer loop
        vertex 200.330475 -5.900345 -26.331308
        vertex 201.628387 2.906971 -27.497690
        vertex 202.230347 -5.893364 -23.107069
        endloop
    endfacet
    facet normal 0.260616 -0.164404 -0.951342
      outer loop
        vertex 196.073029 -5.920563 -27.494123
        vertex 195.951721 2.879982 -29.048203
        vertex 200.330475 -5.900345 -26.331308
        endloop
    endfacet
    facet normal -0.352108 -0.167464 -0.920856
      outer loop
        vertex 191.952026 -5.942116 -25.914480
        vertex 190.457123 2.851257 -26.942007
        vertex 195.951721 2.879982 -29.048203
        endloop
    endfacet
    facet normal -0.889238 -0.199283 -0.411755
      outer loop
        vertex 190.381439 -5.952492 -22.517683
        vertex 188.363037 2.837543 -22.412922
        vertex 190.457123 2.851257 -26.942007
        endloop
    endfacet
    facet normal -0.843993 -0.199737 0.497775
      outer loop
        vertex 190.896271 2.846870 -18.114006
        vertex 189.511139 11.639214 -16.934521
        vertex 188.363037 2.837543 -22.412922
        endloop
    endfacet
    facet normal -0.258979 -0.168385 0.951092
      outer loop
        vertex 196.572845 2.873840 -16.563522
        vertex 196.606903 11.672897 -14.996426
        vertex 190.896271 2.846870 -18.114006
        endloop
    endfacet
    facet normal 0.353749 -0.165327 0.920613
      outer loop
        vertex 202.067535 2.902603 -18.669693
        vertex 203.475220 11.708832 -17.629148
        vertex 196.606903 11.672897 -14.996426
        endloop
    endfacet
    facet normal 0.891174 -0.191077 0.411459
      outer loop
        vertex 204.161560 2.916355 -23.198812
        vertex 206.092804 11.726074 -23.290537
        vertex 203.475220 11.708832 -17.629148
        endloop
    endfacet
    facet normal 0.845930 -0.190626 -0.498060
      outer loop
        vertex 201.628387 2.906971 -27.497690
        vertex 202.926300 11.714325 -28.664158
        vertex 204.161560 2.916355 -23.198812
        endloop
    endfacet
    facet normal 0.260628 -0.164405 -0.951338
      outer loop
        vertex 195.951721 2.879982 -29.048203
        vertex 195.830566 11.680641 -30.602272
        vertex 201.628387 2.906971 -27.497690
        endloop
    endfacet
    facet normal -0.352098 -0.167465 -0.920860
      outer loop
        vertex 190.457123 2.851257 -26.942007
        vertex 188.962173 11.644669 -27.969543
        vertex 195.830566 11.680641 -30.602272
        endloop
    endfacet
    facet normal -0.889241 -0.199287 -0.411747
      outer loop
        vertex 188.363037 2.837543 -22.412922
        vertex 186.344635 11.627464 -22.308180
        vertex 188.962173 11.644669 -27.969543
        endloop
    endfacet
    facet normal -0.843995 -0.199736 0.497773
      outer loop
        vertex 189.511139 11.639214 -16.934521
        vertex 188.126038 20.431519 -15.755033
        vertex 186.344635 11.627464 -22.308180
        endloop
    endfacet
    facet normal -0.258976 -0.168387 0.951093
      outer loop
        vertex 196.606903 11.672897 -14.996426
        vertex 196.640961 20.471954 -13.429319
        vertex 189.511139 11.639214 -16.934521
        endloop
    endfacet
    facet normal 0.353750 -0.165329 0.920612
      outer loop
        vertex 203.475220 11.708832 -17.629148
        vertex 204.882996 20.515118 -16.588614
        vertex 196.640961 20.471954 -13.429319
        endloop
    endfacet
    facet normal 0.891171 -0.191084 0.411462
      outer loop
        vertex 206.092804 11.726074 -23.290537
        vertex 208.024109 20.535736 -23.382261
        vertex 204.882996 20.515118 -16.588614
        endloop
    endfacet
    facet normal 0.845929 -0.190624 -0.498062
      outer loop
        vertex 202.926300 11.714325 -28.664158
        vertex 204.224213 20.521660 -29.830568
        vertex 206.092804 11.726074 -23.290537
        endloop
    endfacet
    facet normal 0.260627 -0.164405 -0.951338
      outer loop
        vertex 195.830566 11.680641 -30.602272
        vertex 195.709351 20.481205 -32.156349
        vertex 202.926300 11.714325 -28.664158
        endloop
    endfacet
    facet normal -0.352106 -0.167456 -0.920858
      outer loop
        vertex 188.962173 11.644669 -27.969543
        vertex 187.467316 20.438061 -28.997023
        vertex 195.709351 20.481205 -32.156349
        endloop
    endfacet
    facet normal -0.889238 -0.199286 -0.411754
      outer loop
        vertex 186.344635 11.627464 -22.308180
        vertex 184.326202 20.417480 -22.203400
        vertex 187.467316 20.438061 -28.997023
        endloop
    endfacet
    facet normal -0.843995 -0.199727 0.497777
      outer loop
        vertex 188.126038 20.431519 -15.755033
        vertex 186.740997 29.223824 -14.575596
        vertex 184.326202 20.417480 -22.203400
        endloop
    endfacet
    facet normal -0.258976 -0.168388 0.951093
      outer loop
        vertex 196.640961 20.471954 -13.429319
        vertex 196.674988 29.271049 -11.862204
        vertex 188.126038 20.431519 -15.755033
        endloop
    endfacet
    facet normal 0.353747 -0.165332 0.920613
      outer loop
        vertex 204.882996 20.515118 -16.588614
        vertex 206.290741 29.321365 -15.548031
        vertex 196.674988 29.271049 -11.862204
        endloop
    endfacet
    facet normal 0.891174 -0.191076 0.411458
      outer loop
        vertex 208.024109 20.535736 -23.382261
        vertex 209.955322 29.345379 -23.473970
        vertex 206.290741 29.321365 -15.548031
        endloop
    endfacet
    facet normal 0.845922 -0.190628 -0.498074
      outer loop
        vertex 204.224213 20.521660 -29.830568
        vertex 205.522125 29.329014 -30.997055
        vertex 208.024109 20.535736 -23.382261
        endloop
    endfacet
    facet normal 0.260633 -0.164397 -0.951338
      outer loop
        vertex 195.709351 20.481205 -32.156349
        vertex 195.588104 29.281845 -33.710373
        vertex 204.224213 20.521660 -29.830568
        endloop
    endfacet
    facet normal -0.352101 -0.167461 -0.920859
      outer loop
        vertex 187.467316 20.438061 -28.997023
        vertex 185.972443 29.231453 -30.024549
        vertex 195.588104 29.281845 -33.710373
        endloop
    endfacet
    facet normal -0.889242 -0.199279 -0.411748
      outer loop
        vertex 184.326202 20.417480 -22.203400
        vertex 182.307861 29.207439 -22.098629
        vertex 185.972443 29.231453 -30.024549
        endloop
    endfacet
    facet normal -0.843991 -0.199740 0.497778
      outer loop
        vertex 186.740997 29.223824 -14.575596
        vertex 185.355865 38.016129 -13.396082
        vertex 182.307861 29.207439 -22.098629
        endloop
    endfacet
    facet normal -0.258983 -0.168380 0.951092
      outer loop
        vertex 196.674988 29.271049 -11.862204
        vertex 196.709106 38.070107 -10.295145
        vertex 186.740997 29.223824 -14.575596
        endloop
    endfacet
    facet normal 0.353746 -0.165328 0.920614
      outer loop
        vertex 206.290741 29.321365 -15.548031
        vertex 207.698486 38.127632 -14.507486
        vertex 196.709106 38.070107 -10.295145
        endloop
    endfacet
    facet normal 0.891174 -0.191079 0.411458
      outer loop
        vertex 209.955322 29.345379 -23.473970
        vertex 211.886566 38.155060 -23.565676
        vertex 207.698486 38.127632 -14.507486
        endloop
    endfacet
    facet normal 0.845923 -0.190631 -0.498070
      outer loop
        vertex 205.522125 29.329014 -30.997055
        vertex 206.820099 38.136368 -32.163494
        vertex 209.955322 29.345379 -23.473970
        endloop
    endfacet
    facet normal 0.260624 -0.164401 -0.951340
      outer loop
        vertex 195.588104 29.281845 -33.710373
        vertex 195.466888 38.082409 -35.264404
        vertex 205.522125 29.329014 -30.997055
        endloop
    endfacet
    facet normal -0.352099 -0.167461 -0.920860
      outer loop
        vertex 185.972443 29.231453 -30.024549
        vertex 184.477509 38.024902 -31.052057
        vertex 195.466888 38.082409 -35.264404
        endloop
    endfacet
    facet normal -0.889241 -0.199287 -0.411747
      outer loop
        vertex 182.307861 29.207439 -22.098629
        vertex 180.289429 37.997437 -21.993849
        vertex 184.477509 38.024902 -31.052057
        endloop
    endfacet
    facet normal 0.928346 0.000000 0.371716
      outer loop
        vertex 215.490753 32.501183 -21.210941
        vertex 215.490753 135.029526 -21.210960
        vertex 209.914062 32.501183 -7.283383
        endloop
    endfacet
    facet normal 0.393862 0.000000 0.919169
      outer loop
        vertex 209.914062 32.501183 -7.283383
        vertex 209.914062 135.029526 -7.283354
        vertex 196.450775 32.501183 -1.514393
        endloop
    endfacet
    facet normal -0.393862 0.000000 0.919170
      outer loop
        vertex 196.450775 32.501183 -1.514393
        vertex 196.450775 135.029526 -1.514435
        vertex 182.987488 32.501183 -7.283373
        endloop
    endfacet
    facet normal -0.928346 0.000000 0.371718
      outer loop
        vertex 182.987488 32.501183 -7.283373
        vertex 182.987488 135.029526 -7.283345
        vertex 177.410767 32.501202 -21.210934
        endloop
    endfacet
    facet normal -0.928348 0.000000 -0.371713
      outer loop
        vertex 177.410767 32.501202 -21.210934
        vertex 177.410767 135.029572 -21.210901
        vertex 182.987396 135.029526 -35.138470
        endloop
    endfacet
    facet normal -0.393862 0.000000 -0.919170
      outer loop
        vertex 182.987488 32.501183 -35.138519
        vertex 182.987396 135.029526 -35.138470
        vertex 196.450775 32.501183 -40.907497
        endloop
    endfacet
    facet normal 0.393862 0.000000 -0.919170
      outer loop
        vertex 196.450775 32.501183 -40.907497
        vertex 196.450775 135.029572 -40.907486
        vertex 209.914062 135.029480 -35.138504
        endloop
    endfacet
    facet normal 0.928346 0.000000 -0.371716
      outer loop
        vertex 209.914062 32.501183 -35.138504
        vertex 209.914062 135.029480 -35.138504
        vertex 215.490753 32.501183 -21.210941
        endloop
    endfacet
    facet normal 0.001204 -0.305093 -0.952322
      outer loop
        vertex 89.915199 -46.420212 -46.510307
        vertex 305.812866 -47.236328 -45.975952
        vertex 304.595978 -313.312744 39.264732
        endloop
    endfacet
    facet normal 0.999990 -0.003781 0.002473
      outer loop
        vertex 304.595978 -313.312744 39.264732
        vertex 305.812866 -47.236328 -45.975952
        vertex 304.588348 -311.375397 45.311966
        endloop
    endfacet
    facet normal -0.001204 0.305093 0.952322
      outer loop
        vertex 304.588348 -311.375397 45.311966
        vertex 305.805237 -45.298996 -39.928745
        vertex 89.907532 -44.482880 -40.463097
        endloop
    endfacet
    facet normal -0.999990 0.003779 -0.002479
      outer loop
        vertex 88.690681 -310.559235 44.777584
        vertex 89.907532 -44.482880 -40.463097
        vertex 89.915199 -46.420212 -46.510307
        endloop
    endfacet
    facet normal -0.004355 -0.952315 0.305087
      outer loop
        vertex 88.698349 -312.496582 38.730362
        vertex 304.595978 -313.312744 39.264732
        vertex 304.588348 -311.375397 45.311966
        endloop
    endfacet
    facet normal 0.004355 0.952315 -0.305086
      outer loop
        vertex 305.812866 -47.236328 -45.975952
        vertex 89.915199 -46.420212 -46.510307
        vertex 305.805237 -45.298996 -39.928745
        endloop
    endfacet
    facet normal -0.538787 -0.247086 -0.805393
      outer loop
        vertex 79.546547 -41.389313 -37.326328
        vertex 94.401321 -44.615746 -46.273949
        vertex 73.332748 -310.382385 49.354958
        endloop
    endfacet
    facet normal 0.842153 -0.182917 -0.507266
      outer loop
        vertex 88.187523 -313.608948 40.407303
        vertex 94.401321 -44.615746 -46.273949
        vertex 91.665459 -312.013916 45.606148
        endloop
    endfacet
    facet normal 0.538787 0.247087 0.805392
      outer loop
        vertex 91.665459 -312.013916 45.606148
        vertex 97.879219 -43.020859 -41.075165
        vertex 76.810646 -308.787415 54.553780
        endloop
    endfacet
    facet normal -0.842153 0.182918 0.507267
      outer loop
        vertex 76.810646 -308.787415 54.553780
        vertex 83.024483 -39.794312 -32.127499
        vertex 79.546547 -41.389313 -37.326328
        endloop
    endfacet
    facet normal -0.021984 -0.951571 0.306643
      outer loop
        vertex 73.332748 -310.382385 49.354958
        vertex 88.187523 -313.608948 40.407303
        vertex 76.810646 -308.787415 54.553780
        endloop
    endfacet
    facet normal 0.021976 0.951571 -0.306644
      outer loop
        vertex 94.401321 -44.615746 -46.273949
        vertex 79.546547 -41.389313 -37.326328
        vertex 83.024483 -39.794312 -32.127499
        endloop
    endfacet
    facet normal 0.008681 -0.342932 0.939320
      outer loop
        vertex 80.697060 -35.947723 -30.245897
        vertex 80.771484 -52.892418 -36.432850
        vertex 313.515350 -34.352875 -31.815264
        endloop
    endfacet
    facet normal 0.004123 -0.939333 -0.342983
      outer loop
        vertex 313.589661 -51.297531 -38.002228
        vertex 80.771484 -52.892418 -36.432850
        vertex 80.714188 -50.628510 -42.633739
        endloop
    endfacet
    facet normal -0.008680 0.342928 -0.939322
      outer loop
        vertex 313.532440 -49.033737 -44.203033
        vertex 80.714188 -50.628510 -42.633739
        vertex 313.457977 -32.088966 -38.016132
        endloop
    endfacet
    facet normal -0.004123 0.939333 0.342981
      outer loop
        vertex 313.457977 -32.088966 -38.016132
        vertex 80.639763 -33.683853 -36.446732
        vertex 80.697060 -35.947723 -30.245897
        endloop
    endfacet
    facet normal 0.999954 0.006842 -0.006729
      outer loop
        vertex 313.515350 -34.352875 -31.815264
        vertex 313.589661 -51.297531 -38.002228
        vertex 313.532440 -49.033737 -44.203033
        endloop
    endfacet
    facet normal -0.999954 -0.006852 0.006738
      outer loop
        vertex 80.771484 -52.892418 -36.432850
        vertex 80.697060 -35.947723 -30.245897
        vertex 80.714188 -50.628510 -42.633739
        endloop
    endfacet
    facet normal -0.583411 0.243238 0.774898
      outer loop
        vertex 311.460754 -32.070007 -35.408215
        vertex 296.679260 -35.555153 -45.443058
        vertex 300.844299 -313.010315 44.785233
        endloop
    endfacet
    facet normal -0.812043 -0.191471 -0.551295
      outer loop
        vertex 300.844299 -313.010315 44.785233
        vertex 296.679260 -35.555153 -45.443058
        vertex 300.565674 -37.175446 -50.604897
        endloop
    endfacet
    facet normal 0.583411 -0.243239 -0.774898
      outer loop
        vertex 304.730713 -314.630615 39.623466
        vertex 300.565674 -37.175446 -50.604897
        vertex 315.347168 -33.690338 -40.570068
        endloop
    endfacet
    facet normal 0.812051 0.191467 0.551284
      outer loop
        vertex 319.512054 -311.145355 49.658260
        vertex 315.347168 -33.690338 -40.570068
        vertex 315.625793 -309.525116 54.820061
        endloop
    endfacet
    facet normal 0.014270 -0.950880 0.309230
      outer loop
        vertex 315.625793 -309.525116 54.820061
        vertex 300.844299 -313.010315 44.785233
        vertex 304.730713 -314.630615 39.623466
        endloop
    endfacet
    facet normal -0.014271 0.950882 -0.309225
      outer loop
        vertex 296.679260 -35.555153 -45.443058
        vertex 311.460754 -32.070007 -35.408215
        vertex 300.565674 -37.175446 -50.604897
        endloop
    endfacet
    facet normal 0.923656 -0.002889 0.383212
      outer loop
        vertex 213.743134 696.856995 -16.652538
        vertex 208.467133 697.281738 -3.932589
        vertex 208.345917 41.518631 -8.584624
        endloop
    endfacet
    facet normal 0.382045 -0.006626 0.924120
      outer loop
        vertex 208.467133 697.281738 -3.932589
        vertex 195.982788 697.456116 1.229874
        vertex 195.861664 41.692963 -3.422176
        endloop
    endfacet
    facet normal -0.400931 -0.006425 0.916086
      outer loop
        vertex 195.861664 41.692963 -3.422176
        vertex 183.603668 697.277832 -4.189297
        vertex 183.482330 41.514740 -8.841327
        endloop
    endfacet
    facet normal -0.931122 -0.002415 0.364700
      outer loop
        vertex 183.482330 41.514740 -8.841327
        vertex 178.580902 696.851440 -17.015554
        vertex 178.459656 41.088371 -21.667625
        endloop
    endfacet
    facet normal -0.923654 0.002889 -0.383216
      outer loop
        vertex 178.459656 41.088371 -21.667625
        vertex 183.856995 696.426697 -29.735519
        vertex 183.735733 40.663567 -34.387619
        endloop
    endfacet
    facet normal -0.382051 0.006627 -0.924117
      outer loop
        vertex 183.735733 40.663567 -34.387619
        vertex 196.341171 696.252441 -34.897991
        vertex 196.219910 40.489311 -39.550110
        endloop
    endfacet
    facet normal 0.400935 0.006425 -0.916084
      outer loop
        vertex 196.341171 696.252441 -34.897991
        vertex 208.720428 696.430542 -29.478815
        vertex 208.599213 40.667496 -34.130947
        endloop
    endfacet
    facet normal 0.931121 0.002415 -0.364703
      outer loop
        vertex 208.720428 696.430542 -29.478815
        vertex 213.743134 696.856995 -16.652538
        vertex 213.621902 41.093979 -21.304562
        endloop
    endfacet
    facet normal -0.000192 -0.999446 0.033287
      outer loop
        vertex 213.621902 41.093979 -21.304562
        vertex 208.345917 41.518631 -8.584624
        vertex 195.861664 41.692963 -3.422176
        endloop
    endfacet
    facet normal -0.000185 -0.999446 0.033293
      outer loop
        vertex 213.621902 41.093979 -21.304562
        vertex 195.861664 41.692963 -3.422176
        vertex 183.482330 41.514740 -8.841327
        endloop
    endfacet
    facet normal -0.000184 -0.999446 0.033296
      outer loop
        vertex 213.621902 41.093979 -21.304562
        vertex 183.482330 41.514740 -8.841327
        vertex 178.459656 41.088371 -21.667625
        endloop
    endfacet
    facet normal -0.000184 -0.999445 0.033302
      outer loop
        vertex 213.621902 41.093979 -21.304562
        vertex 178.459656 41.088371 -21.667625
        vertex 183.735733 40.663567 -34.387619
        endloop
    endfacet
    facet normal -0.000182 -0.999445 0.033296
      outer loop
        vertex 213.621902 41.093979 -21.304562
        vertex 183.735733 40.663567 -34.387619
        vertex 196.219910 40.489311 -39.550110
        endloop
    endfacet
    facet normal -0.000195 -0.999445 0.033309
      outer loop
        vertex 213.621902 41.093979 -21.304562
        vertex 196.219910 40.489311 -39.550110
        vertex 208.599213 40.667496 -34.130947
        endloop
    endfacet
    facet normal 0.000189 0.999446 -0.033278
      outer loop
        vertex 208.720428 696.430542 -29.478815
        vertex 196.341171 696.252441 -34.897991
        vertex 183.856995 696.426697 -29.735519
        endloop
    endfacet
    facet normal 0.000189 0.999446 -0.033295
      outer loop
        vertex 208.720428 696.430542 -29.478815
        vertex 183.856995 696.426697 -29.735519
        vertex 178.580902 696.851440 -17.015554
        endloop
    endfacet
    facet normal 0.000188 0.999445 -0.033299
      outer loop
        vertex 208.720428 696.430542 -29.478815
        vertex 178.580902 696.851440 -17.015554
        vertex 183.603668 697.277832 -4.189297
        endloop
    endfacet
    facet normal 0.000184 0.999445 -0.033302
      outer loop
        vertex 208.720428 696.430542 -29.478815
        vertex 183.603668 697.277832 -4.189297
        vertex 195.982788 697.456116 1.229874
        endloop
    endfacet
    facet normal 0.000190 0.999445 -0.033299
      outer loop
        vertex 208.720428 696.430542 -29.478815
        vertex 195.982788 697.456116 1.229874
        vertex 208.467133 697.281738 -3.932589
        endloop
    endfacet
    facet normal 0.000178 0.999445 -0.033300
      outer loop
        vertex 208.720428 696.430542 -29.478815
        vertex 208.467133 697.281738 -3.932589
        vertex 213.743134 696.856995 -16.652538
        endloop
    endfacet
    facet normal -0.000471 0.000002 1.000000
      outer loop
        vertex 260.183472 912.435852 -5.645440
        vertex 250.181152 821.338013 -5.649971
        vertex 260.181091 821.337769 -5.645257
        endloop
    endfacet
    facet normal -1.000000 0.000026 -0.000473
      outer loop
        vertex 250.183533 912.436035 -5.650154
        vertex 250.194931 912.436035 -29.734171
        vertex 250.192596 821.338013 -29.733978
        endloop
    endfacet
    facet normal 0.000471 -0.000002 -1.000000
      outer loop
        vertex 250.192596 821.338013 -29.733978
        vertex 260.194885 912.435852 -29.729445
        vertex 260.192505 821.337769 -29.729267
        endloop
    endfacet
    facet normal 1.000000 -0.000026 0.000474
      outer loop
        vertex 260.192505 821.337769 -29.729267
        vertex 260.183472 912.435852 -5.645440
        vertex 260.181091 821.337769 -5.645257
        endloop
    endfacet
    facet normal -0.000024 -1.000000 0.000000
      outer loop
        vertex 260.181091 821.337769 -5.645257
        vertex 250.192596 821.338013 -29.733978
        vertex 260.192505 821.337769 -29.729267
        endloop
    endfacet
    facet normal 0.000018 1.000000 0.000000
      outer loop
        vertex 260.183472 912.435852 -5.645440
        vertex 260.194885 912.435852 -29.729445
        vertex 250.194931 912.436035 -29.734171
        endloop
    endfacet
    facet normal -0.000469 0.000002 1.000000
      outer loop
        vertex 130.236328 912.312317 -5.806253
        vertex 130.234039 821.214478 -5.806046
        vertex 140.233948 821.214111 -5.801351
        endloop
    endfacet
    facet normal -1.000000 0.000026 -0.000472
      outer loop
        vertex 130.234039 821.214478 -5.806046
        vertex 130.247375 912.312317 -29.076000
        vertex 130.245026 821.214294 -29.075806
        endloop
    endfacet
    facet normal 0.000476 -0.000002 -1.000000
      outer loop
        vertex 130.247375 912.312317 -29.076000
        vertex 140.247314 912.312012 -29.071236
        vertex 140.244980 821.214111 -29.071081
        endloop
    endfacet
    facet normal 1.000000 -0.000026 0.000472
      outer loop
        vertex 140.247314 912.312012 -29.071236
        vertex 140.236328 912.312256 -5.801489
        vertex 140.233948 821.214111 -5.801351
        endloop
    endfacet
    facet normal -0.000018 -1.000000 0.000000
      outer loop
        vertex 140.233948 821.214111 -5.801351
        vertex 130.245026 821.214294 -29.075806
        vertex 140.244980 821.214111 -29.071081
        endloop
    endfacet
    facet normal 0.000031 1.000000 0.000000
      outer loop
        vertex 130.236328 912.312317 -5.806253
        vertex 140.247314 912.312012 -29.071236
        vertex 130.247375 912.312317 -29.076000
        endloop
    endfacet
    facet normal 0.011307 -0.006413 0.999916
      outer loop
        vertex 252.350433 827.006531 -5.357174
        vertex 199.931305 752.501953 -5.242267
        vertex 208.109100 746.748169 -5.371641
        endloop
    endfacet
    facet normal -0.817780 0.575385 0.012939
      outer loop
        vertex 199.931305 752.501953 -5.242267
        vertex 252.073593 827.163574 -29.841597
        vertex 199.654419 752.658997 -29.726665
        endloop
    endfacet
    facet normal -0.011307 0.006414 -0.999916
      outer loop
        vertex 252.073593 827.163574 -29.841597
        vertex 260.251282 821.409912 -29.970978
        vertex 207.832153 746.905212 -29.856081
        endloop
    endfacet
    facet normal 0.817781 -0.575384 -0.012939
      outer loop
        vertex 260.251282 821.409912 -29.970978
        vertex 260.528229 821.252930 -5.486589
        vertex 208.109100 746.748169 -5.371641
        endloop
    endfacet
    facet normal -0.575418 -0.817858 0.001263
      outer loop
        vertex 208.109100 746.748169 -5.371641
        vertex 199.654419 752.658997 -29.726665
        vertex 207.832153 746.905212 -29.856081
        endloop
    endfacet
    facet normal 0.575412 0.817863 -0.001265
      outer loop
        vertex 260.528229 821.252930 -5.486589
        vertex 260.251282 821.409912 -29.970978
        vertex 252.073593 827.163574 -29.841597
        endloop
    endfacet
    facet normal 0.003199 0.004217 0.999986
      outer loop
        vertex 138.051178 826.771729 -6.481009
        vertex 184.661530 747.865723 -6.297370
        vertex 192.665070 753.860474 -6.348251
        endloop
    endfacet
    facet normal -0.800361 -0.599496 0.005076
      outer loop
        vertex 130.047607 820.776855 -6.430162
        vertex 129.972198 820.677490 -30.054972
        vertex 184.585999 747.766113 -29.922216
        endloop
    endfacet
    facet normal -0.003199 -0.004216 -0.999986
      outer loop
        vertex 184.585999 747.766113 -29.922216
        vertex 137.975647 826.672241 -30.105822
        vertex 192.589539 753.760986 -29.973095
        endloop
    endfacet
    facet normal 0.800360 0.599498 -0.005083
      outer loop
        vertex 192.589539 753.760986 -29.973095
        vertex 138.051178 826.771729 -6.481009
        vertex 192.665070 753.860474 -6.348251
        endloop
    endfacet
    facet normal 0.599507 -0.800368 0.001454
      outer loop
        vertex 192.665070 753.860474 -6.348251
        vertex 184.585999 747.766113 -29.922216
        vertex 192.589539 753.760986 -29.973095
        endloop
    endfacet
    facet normal -0.599504 0.800371 -0.001454
      outer loop
        vertex 138.051178 826.771729 -6.481009
        vertex 137.975647 826.672241 -30.105822
        vertex 129.972198 820.677490 -30.054972
        endloop
    endfacet
    facet normal 0.927512 -0.000023 0.373794
      outer loop
        vertex 214.863358 771.198120 -17.003296
        vertex 209.451111 771.198425 -3.573650
        vertex 209.449127 693.287842 -3.573493
        endloop
    endfacet
    facet normal 0.391729 -0.000007 0.920081
      outer loop
        vertex 209.449127 693.287842 -3.573493
        vertex 196.397430 771.198608 1.983945
        vertex 196.395447 693.288269 1.984177
        endloop
    endfacet
    facet normal -0.392596 0.000012 0.919711
      outer loop
        vertex 196.397430 771.198608 1.983945
        vertex 183.349121 771.199036 -3.585979
        vertex 183.347092 693.288574 -3.585829
        endloop
    endfacet
    facet normal -0.927865 0.000024 0.372916
      outer loop
        vertex 183.349121 771.199036 -3.585979
        vertex 177.949554 771.199219 -17.020815
        vertex 177.947571 693.288635 -17.020634
        endloop
    endfacet
    facet normal -0.927512 0.000023 -0.373794
      outer loop
        vertex 177.947571 693.288635 -17.020634
        vertex 183.361816 771.199036 -30.450470
        vertex 183.359833 693.288452 -30.450323
        endloop
    endfacet
    facet normal -0.391729 0.000009 -0.920081
      outer loop
        vertex 183.359833 693.288452 -30.450323
        vertex 196.415482 771.198608 -36.008106
        vertex 196.413391 693.288086 -36.007946
        endloop
    endfacet
    facet normal 0.392598 -0.000012 -0.919710
      outer loop
        vertex 196.415482 771.198608 -36.008106
        vertex 209.463837 771.198242 -30.438133
        vertex 209.461792 693.287842 -30.437994
        endloop
    endfacet
    facet normal 0.927865 -0.000024 -0.372917
      outer loop
        vertex 209.461792 693.287842 -30.437994
        vertex 214.863358 771.198120 -17.003296
        vertex 214.861374 693.287659 -17.003147
        endloop
    endfacet
    facet normal -0.000033 -1.000000 0.000001
      outer loop
        vertex 214.861374 693.287659 -17.003147
        vertex 209.449127 693.287842 -3.573493
        vertex 196.395447 693.288269 1.984177
        endloop
    endfacet
    facet normal -0.000026 -1.000000 0.000007
      outer loop
        vertex 214.861374 693.287659 -17.003147
        vertex 196.395447 693.288269 1.984177
        vertex 183.347092 693.288574 -3.585829
        endloop
    endfacet
    facet normal -0.000026 -1.000000 0.000006
      outer loop
        vertex 214.861374 693.287659 -17.003147
        vertex 183.347092 693.288574 -3.585829
        vertex 177.947571 693.288635 -17.020634
        endloop
    endfacet
    facet normal -0.000026 -1.000000 0.000003
      outer loop
        vertex 214.861374 693.287659 -17.003147
        vertex 177.947571 693.288635 -17.020634
        vertex 183.359833 693.288452 -30.450323
        endloop
    endfacet
    facet normal -0.000027 -1.000000 0.000003
      outer loop
        vertex 214.861374 693.287659 -17.003147
        vertex 183.359833 693.288452 -30.450323
        vertex 196.413391 693.288086 -36.007946
        endloop
    endfacet
    facet normal -0.000016 -1.000000 -0.000007
      outer loop
        vertex 214.861374 693.287659 -17.003147
        vertex 196.413391 693.288086 -36.007946
        vertex 209.461792 693.287842 -30.437994
        endloop
    endfacet
    facet normal 0.000030 1.000000 -0.000005
      outer loop
        vertex 209.463837 771.198242 -30.438133
        vertex 196.415482 771.198608 -36.008106
        vertex 183.361816 771.199036 -30.450470
        endloop
    endfacet
    facet normal 0.000030 1.000000 -0.000001
      outer loop
        vertex 209.463837 771.198242 -30.438133
        vertex 183.361816 771.199036 -30.450470
        vertex 177.949554 771.199219 -17.020815
        endloop
    endfacet
    facet normal 0.000031 1.000000 0.000001
      outer loop
        vertex 209.463837 771.198242 -30.438133
        vertex 177.949554 771.199219 -17.020815
        vertex 183.349121 771.199036 -3.585979
        endloop
    endfacet
    facet normal 0.000032 1.000000 0.000002
      outer loop
        vertex 209.463837 771.198242 -30.438133
        vertex 183.349121 771.199036 -3.585979
        vertex 196.397430 771.198608 1.983945
        endloop
    endfacet
    facet normal 0.000011 1.000000 -0.000007
      outer loop
        vertex 209.463837 771.198242 -30.438133
        vertex 196.397430 771.198608 1.983945
        vertex 209.451111 771.198425 -3.573650
        endloop
    endfacet
    facet normal 0.000040 1.000000 -0.000007
      outer loop
        vertex 209.463837 771.198242 -30.438133
        vertex 209.451111 771.198425 -3.573650
        vertex 214.863358 771.198120 -17.003296
        endloop
    endfacet
    facet normal -0.001232 0.385470 -0.922720
      outer loop
        vertex 133.859863 895.328308 -34.739788
        vertex 133.825714 907.147339 -29.802296
        vertex 254.892197 907.502136 -29.815769
        endloop
    endfacet
    facet normal -0.002753 0.924991 -0.379978
      outer loop
        vertex 254.892197 907.502136 -29.815769
        vertex 133.812988 911.946533 -18.119413
        vertex 254.879456 912.301331 -18.132875
        endloop
    endfacet
    facet normal -0.002643 0.917206 0.398406
      outer loop
        vertex 254.879456 912.301331 -18.132875
        vertex 133.829041 906.914673 -6.534841
        vertex 254.895477 907.269409 -6.548328
        endloop
    endfacet
    facet normal -0.000972 0.366931 0.930248
      outer loop
        vertex 133.829041 906.914673 -6.534841
        vertex 133.864471 894.999084 -1.834767
        vertex 254.930878 895.354004 -1.848292
        endloop
    endfacet
    facet normal 0.001232 -0.385466 0.922721
      outer loop
        vertex 254.930878 895.354004 -1.848292
        vertex 133.898621 883.180054 -6.772296
        vertex 254.964981 883.534851 -6.785781
        endloop
    endfacet
    facet normal 0.002752 -0.924996 0.379966
      outer loop
        vertex 133.898621 883.180054 -6.772296
        vertex 133.911407 878.381042 -18.455181
        vertex 254.977722 878.735657 -18.468685
        endloop
    endfacet
    facet normal 0.002643 -0.917202 -0.398413
      outer loop
        vertex 254.977722 878.735657 -18.468685
        vertex 133.895386 883.412964 -30.039701
        vertex 254.961700 883.767700 -30.053255
        endloop
    endfacet
    facet normal 0.000971 -0.366938 -0.930245
      outer loop
        vertex 133.895386 883.412964 -30.039701
        vertex 133.859863 895.328308 -34.739788
        vertex 254.926300 895.683105 -34.753334
        endloop
    endfacet
    facet normal 0.999996 0.002933 -0.000114
      outer loop
        vertex 254.926300 895.683105 -34.753334
        vertex 254.892197 907.502136 -29.815769
        vertex 254.879456 912.301331 -18.132875
        endloop
    endfacet
    facet normal 0.999996 0.002929 -0.000111
      outer loop
        vertex 254.926300 895.683105 -34.753334
        vertex 254.879456 912.301331 -18.132875
        vertex 254.895477 907.269409 -6.548328
        endloop
    endfacet
    facet normal 0.999996 0.002928 -0.000110
      outer loop
        vertex 254.926300 895.683105 -34.753334
        vertex 254.895477 907.269409 -6.548328
        vertex 254.930878 895.354004 -1.848292
        endloop
    endfacet
    facet normal 0.999996 0.002931 -0.000110
      outer loop
        vertex 254.926300 895.683105 -34.753334
        vertex 254.930878 895.354004 -1.848292
        vertex 254.964981 883.534851 -6.785781
        endloop
    endfacet
    facet normal 0.999996 0.002927 -0.000112
      outer loop
        vertex 254.926300 895.683105 -34.753334
        vertex 254.964981 883.534851 -6.785781
        vertex 254.977722 878.735657 -18.468685
        endloop
    endfacet
    facet normal 0.999996 0.002927 -0.000112
      outer loop
        vertex 254.926300 895.683105 -34.753334
        vertex 254.977722 878.735657 -18.468685
        vertex 254.961700 883.767700 -30.053255
        endloop
    endfacet
    facet normal -0.999996 -0.002931 0.000110
      outer loop
        vertex 133.895386 883.412964 -30.039701
        vertex 133.911407 878.381042 -18.455181
        vertex 133.898621 883.180054 -6.772296
        endloop
    endfacet
    facet normal -0.999996 -0.002935 0.000110
      outer loop
        vertex 133.895386 883.412964 -30.039701
        vertex 133.898621 883.180054 -6.772296
        vertex 133.864471 894.999084 -1.834767
        endloop
    endfacet
    facet normal -0.999996 -0.002931 0.000108
      outer loop
        vertex 133.895386 883.412964 -30.039701
        vertex 133.864471 894.999084 -1.834767
        vertex 133.829041 906.914673 -6.534841
        endloop
    endfacet
    facet normal -0.999996 -0.002934 0.000111
      outer loop
        vertex 133.895386 883.412964 -30.039701
        vertex 133.829041 906.914673 -6.534841
        vertex 133.812988 911.946533 -18.119413
        endloop
    endfacet
    facet normal -0.999996 -0.002937 0.000117
      outer loop
        vertex 133.895386 883.412964 -30.039701
        vertex 133.812988 911.946533 -18.119413
        vertex 133.825714 907.147339 -29.802296
        endloop
    endfacet
    facet normal -0.999996 -0.002937 0.000113
      outer loop
        vertex 133.895386 883.412964 -30.039701
        vertex 133.825714 907.147339 -29.802296
        vertex 133.859863 895.328308 -34.739788
        endloop
    endfacet
    facet normal -0.377580 -0.189670 0.906343
      outer loop
        vertex 195.173462 -67.892914 -25.237663
        vertex 184.870483 33.733082 -8.262665
        vertex 184.870483 -67.032433 -29.349787
        endloop
    endfacet
    facet normal -0.921729 -0.079441 0.379611
      outer loop
        vertex 184.870483 -67.032433 -29.349787
        vertex 180.602844 35.810585 -18.190165
        vertex 180.602844 -64.954948 -39.277252
        endloop
    endfacet
    facet normal -0.921730 0.079440 -0.379609
      outer loop
        vertex 180.602844 35.810585 -18.190165
        vertex 184.870483 37.888145 -28.117668
        vertex 184.870483 -62.877350 -49.204796
        endloop
    endfacet
    facet normal -0.377574 0.189670 -0.906346
      outer loop
        vertex 184.870483 -62.877350 -49.204796
        vertex 195.173416 38.748665 -32.229763
        vertex 195.173462 -62.016869 -53.316833
        endloop
    endfacet
    facet normal 0.377581 0.189669 -0.906343
      outer loop
        vertex 195.173462 -62.016869 -53.316833
        vertex 205.476349 37.888069 -28.117674
        vertex 205.476349 -62.877388 -49.204750
        endloop
    endfacet
    facet normal 0.921731 0.079440 -0.379608
      outer loop
        vertex 205.476349 37.888069 -28.117674
        vertex 209.743988 35.810623 -18.190109
        vertex 209.743988 -64.954948 -39.277233
        endloop
    endfacet
    facet normal 0.921730 -0.079441 0.379609
      outer loop
        vertex 209.743988 -64.954948 -39.277233
        vertex 205.476410 33.733063 -8.262693
        vertex 205.476349 -67.032471 -29.349726
        endloop
    endfacet
    facet normal 0.377577 -0.189669 0.906345
      outer loop
        vertex 205.476410 33.733063 -8.262693
        vertex 195.173370 32.872543 -4.150593
        vertex 195.173462 -67.892914 -25.237663
        endloop
    endfacet
    facet normal 0.000005 -0.978797 -0.204832
      outer loop
        vertex 195.173462 -67.892914 -25.237663
        vertex 184.870483 -67.032433 -29.349787
        vertex 180.602844 -64.954948 -39.277252
        endloop
    endfacet
    facet normal 0.000009 -0.978796 -0.204835
      outer loop
        vertex 195.173462 -67.892914 -25.237663
        vertex 180.602844 -64.954948 -39.277252
        vertex 184.870483 -62.877350 -49.204796
        endloop
    endfacet
    facet normal -0.000003 -0.978798 -0.204830
      outer loop
        vertex 195.173462 -67.892914 -25.237663
        vertex 184.870483 -62.877350 -49.204796
        vertex 195.173462 -62.016869 -53.316833
        endloop
    endfacet
    facet normal 0.000000 -0.978798 -0.204830
      outer loop
        vertex 195.173462 -67.892914 -25.237663
        vertex 195.173462 -62.016869 -53.316833
        vertex 205.476349 -62.877388 -49.204750
        endloop
    endfacet
    facet normal -0.000006 -0.978797 -0.204833
      outer loop
        vertex 195.173462 -67.892914 -25.237663
        vertex 205.476349 -62.877388 -49.204750
        vertex 209.743988 -64.954948 -39.277233
        endloop
    endfacet
    facet normal -0.000010 -0.978796 -0.204836
      outer loop
        vertex 195.173462 -67.892914 -25.237663
        vertex 209.743988 -64.954948 -39.277233
        vertex 205.476349 -67.032471 -29.349726
        endloop
    endfacet
    facet normal -0.000017 0.978797 0.204831
      outer loop
        vertex 205.476410 33.733063 -8.262693
        vertex 209.743988 35.810623 -18.190109
        vertex 205.476349 37.888069 -28.117674
        endloop
    endfacet
    facet normal 0.000006 0.978797 0.204831
      outer loop
        vertex 205.476410 33.733063 -8.262693
        vertex 205.476349 37.888069 -28.117674
        vertex 195.173416 38.748665 -32.229763
        endloop
    endfacet
    facet normal 0.000002 0.978797 0.204833
      outer loop
        vertex 205.476410 33.733063 -8.262693
        vertex 195.173416 38.748665 -32.229763
        vertex 184.870483 37.888145 -28.117668
        endloop
    endfacet
    facet normal -0.000001 0.978796 0.204835
      outer loop
        vertex 205.476410 33.733063 -8.262693
        vertex 184.870483 37.888145 -28.117668
        vertex 180.602844 35.810585 -18.190165
        endloop
    endfacet
    facet normal 0.000001 0.978798 0.204830
      outer loop
        vertex 205.476410 33.733063 -8.262693
        vertex 180.602844 35.810585 -18.190165
        vertex 184.870483 33.733082 -8.262665
        endloop
    endfacet
    facet normal 0.000001 0.978797 0.204831
      outer loop
        vertex 205.476410 33.733063 -8.262693
        vertex 184.870483 33.733082 -8.262665
        vertex 195.173370 32.872543 -4.150593
        endloop
    endfacet
    facet normal 0.004942 -0.999987 -0.000871
      outer loop
        vertex 194.941742 -23.529015 -23.859509
        vertex 196.315491 -23.521767 -24.386023
        vertex 197.734558 -23.515091 -23.998411
        endloop
    endfacet
    facet normal 0.004950 -0.999987 -0.000716
      outer loop
        vertex 194.941742 -23.529015 -23.859509
        vertex 197.734558 -23.515091 -23.998411
        vertex 198.367889 -23.512726 -22.923706
        endloop
    endfacet
    facet normal 0.004956 -0.999987 -0.000740
      outer loop
        vertex 194.941742 -23.529015 -23.859509
        vertex 198.367889 -23.512726 -22.923706
        vertex 197.844360 -23.516159 -21.791389
        endloop
    endfacet
    facet normal 0.004980 -0.999987 -0.000773
      outer loop
        vertex 194.941742 -23.529015 -23.859509
        vertex 197.844360 -23.516159 -21.791389
        vertex 196.470718 -23.523407 -21.264856
        endloop
    endfacet
    facet normal 0.004935 -0.999987 -0.000747
      outer loop
        vertex 194.941742 -23.529015 -23.859509
        vertex 196.470718 -23.523407 -21.264856
        vertex 195.051575 -23.530121 -21.652458
        endloop
    endfacet
    facet normal 0.004942 -0.999988 -0.000747
      outer loop
        vertex 194.941742 -23.529015 -23.859509
        vertex 195.051575 -23.530121 -21.652458
        vertex 194.418213 -23.532448 -22.727125
        endloop
    endfacet
    facet normal -0.843977 -0.199727 0.497807
      outer loop
        vertex 193.666504 -14.737701 -20.472986
        vertex 192.399780 -14.742432 -22.622473
        vertex 194.418213 -23.532448 -22.727125
        endloop
    endfacet
    facet normal -0.258978 -0.168383 0.951093
      outer loop
        vertex 196.504791 -14.724312 -19.697763
        vertex 193.666504 -14.737701 -20.472986
        vertex 195.051575 -23.530121 -21.652458
        endloop
    endfacet
    facet normal 0.353753 -0.165328 0.920611
      outer loop
        vertex 197.844360 -23.516159 -21.791389
        vertex 196.504791 -14.724312 -19.697763
        vertex 196.470718 -23.523407 -21.264856
        endloop
    endfacet
    facet normal 0.891174 -0.191080 0.411457
      outer loop
        vertex 198.367889 -23.512726 -22.923706
        vertex 199.252136 -14.709892 -20.750864
        vertex 197.844360 -23.516159 -21.791389
        endloop
    endfacet
    facet normal 0.845921 -0.190623 -0.498078
      outer loop
        vertex 199.032471 -14.707756 -25.164812
        vertex 200.299103 -14.703026 -23.015411
        vertex 198.367889 -23.512726 -22.923706
        endloop
    endfacet
    facet normal 0.260629 -0.164399 -0.951339
      outer loop
        vertex 196.194229 -14.721260 -25.940044
        vertex 199.032471 -14.707756 -25.164812
        vertex 197.734558 -23.515091 -23.998411
        endloop
    endfacet
    facet normal -0.352059 -0.167462 -0.920875
      outer loop
        vertex 194.941742 -23.529015 -23.859509
        vertex 196.194229 -14.721260 -25.940044
        vertex 196.315491 -23.521767 -24.386023
        endloop
    endfacet
    facet normal -0.889252 -0.199275 -0.411728
      outer loop
        vertex 194.418213 -23.532448 -22.727125
        vertex 193.446930 -14.735603 -24.886992
        vertex 194.941742 -23.529015 -23.859509
        endloop
    endfacet
    facet normal 0.004950 -0.999988 -0.000705
      outer loop
        vertex 193.446930 -14.735603 -24.886992
        vertex 196.194229 -14.721260 -25.940044
        vertex 199.032471 -14.707756 -25.164812
        endloop
    endfacet
    facet normal 0.004950 -0.999987 -0.000716
      outer loop
        vertex 193.446930 -14.735603 -24.886992
        vertex 199.032471 -14.707756 -25.164812
        vertex 200.299103 -14.703026 -23.015411
        endloop
    endfacet
    facet normal 0.004957 -0.999987 -0.000741
      outer loop
        vertex 193.446930 -14.735603 -24.886992
        vertex 200.299103 -14.703026 -23.015411
        vertex 199.252136 -14.709892 -20.750864
        endloop
    endfacet
    facet normal 0.004962 -0.999987 -0.000748
      outer loop
        vertex 193.446930 -14.735603 -24.886992
        vertex 199.252136 -14.709892 -20.750864
        vertex 196.504791 -14.724312 -19.697763
        endloop
    endfacet
    facet normal 0.004914 -0.999988 -0.000720
      outer loop
        vertex 193.446930 -14.735603 -24.886992
        vertex 196.504791 -14.724312 -19.697763
        vertex 193.666504 -14.737701 -20.472986
        endloop
    endfacet
    facet normal 0.004959 -0.999987 -0.000722
      outer loop
        vertex 193.446930 -14.735603 -24.886992
        vertex 193.666504 -14.737701 -20.472986
        vertex 192.399780 -14.742432 -22.622473
        endloop
    endfacet
    facet normal -0.843993 -0.199731 0.497778
      outer loop
        vertex 192.281372 -5.945473 -19.293491
        vertex 190.381439 -5.952492 -22.517683
        vertex 192.399780 -14.742432 -22.622473
        endloop
    endfacet
    facet normal -0.258968 -0.168389 0.951095
      outer loop
        vertex 196.538818 -5.925255 -18.130676
        vertex 192.281372 -5.945473 -19.293491
        vertex 193.666504 -14.737701 -20.472986
        endloop
    endfacet
    facet normal 0.353753 -0.165326 0.920612
      outer loop
        vertex 199.252136 -14.709892 -20.750864
        vertex 196.538818 -5.925255 -18.130676
        vertex 196.504791 -14.724312 -19.697763
        endloop
    endfacet
    facet normal 0.891182 -0.191083 0.411440
      outer loop
        vertex 200.299103 -14.703026 -23.015411
        vertex 200.659912 -5.903664 -19.710285
        vertex 199.252136 -14.709892 -20.750864
        endloop
    endfacet
    facet normal 0.845935 -0.190627 -0.498052
      outer loop
        vertex 200.330475 -5.900345 -26.331308
        vertex 202.230347 -5.893364 -23.107069
        vertex 200.299103 -14.703026 -23.015411
        endloop
    endfacet
    facet normal 0.260616 -0.164409 -0.951341
      outer loop
        vertex 196.073029 -5.920563 -27.494123
        vertex 200.330475 -5.900345 -26.331308
        vertex 199.032471 -14.707756 -25.164812
        endloop
    endfacet
    facet normal -0.352096 -0.167460 -0.920861
      outer loop
        vertex 193.446930 -14.735603 -24.886992
        vertex 196.073029 -5.920563 -27.494123
        vertex 196.194229 -14.721260 -25.940044
        endloop
    endfacet
    facet normal -0.889221 -0.199285 -0.411791
      outer loop
        vertex 192.399780 -14.742432 -22.622473
        vertex 191.952026 -5.942116 -25.914480
        vertex 193.446930 -14.735603 -24.886992
        endloop
    endfacet
    facet normal 0.004949 -0.999987 -0.000733
      outer loop
        vertex 191.952026 -5.942116 -25.914480
        vertex 196.073029 -5.920563 -27.494123
        vertex 200.330475 -5.900345 -26.331308
        endloop
    endfacet
    facet normal 0.004948 -0.999987 -0.000751
      outer loop
        vertex 191.952026 -5.942116 -25.914480
        vertex 200.330475 -5.900345 -26.331308
        vertex 202.230347 -5.893364 -23.107069
        endloop
    endfacet
    facet normal 0.004947 -0.999987 -0.000745
      outer loop
        vertex 191.952026 -5.942116 -25.914480
        vertex 202.230347 -5.893364 -23.107069
        vertex 200.659912 -5.903664 -19.710285
        endloop
    endfacet
    facet normal 0.004951 -0.999987 -0.000751
      outer loop
        vertex 191.952026 -5.942116 -25.914480
        vertex 200.659912 -5.903664 -19.710285
        vertex 196.538818 -5.925255 -18.130676
        endloop
    endfacet
    facet normal 0.004955 -0.999987 -0.000753
      outer loop
        vertex 191.952026 -5.942116 -25.914480
        vertex 196.538818 -5.925255 -18.130676
        vertex 192.281372 -5.945473 -19.293491
        endloop
    endfacet
    facet normal 0.004975 -0.999987 -0.000754
      outer loop
        vertex 191.952026 -5.942116 -25.914480
        vertex 192.281372 -5.945473 -19.293491
        vertex 190.381439 -5.952492 -22.517683
        endloop
    endfacet
    facet normal -0.843994 -0.199734 0.497776
      outer loop
        vertex 190.896271 2.846870 -18.114006
        vertex 188.363037 2.837543 -22.412922
        vertex 190.381439 -5.952492 -22.517683
        endloop
    endfacet
    facet normal -0.258979 -0.168386 0.951092
      outer loop
        vertex 196.572845 2.873840 -16.563522
        vertex 190.896271 2.846870 -18.114006
        vertex 192.281372 -5.945473 -19.293491
        endloop
    endfacet
    facet normal 0.353737 -0.165333 0.920617
      outer loop
        vertex 200.659912 -5.903664 -19.710285
        vertex 196.572845 2.873840 -16.563522
        vertex 196.538818 -5.925255 -18.130676
        endloop
    endfacet
    facet normal 0.891184 -0.191068 0.411442
      outer loop
        vertex 202.230347 -5.893364 -23.107069
        vertex 202.067535 2.902603 -18.669693
        vertex 200.659912 -5.903664 -19.710285
        endloop
    endfacet
    facet normal 0.845930 -0.190626 -0.498060
      outer loop
        vertex 201.628387 2.906971 -27.497690
        vertex 204.161560 2.916355 -23.198812
        vertex 202.230347 -5.893364 -23.107069
        endloop
    endfacet
    facet normal 0.260628 -0.164397 -0.951339
      outer loop
        vertex 195.951721 2.879982 -29.048203
        vertex 201.628387 2.906971 -27.497690
        vertex 200.330475 -5.900345 -26.331308
        endloop
    endfacet
    facet normal -0.352103 -0.167467 -0.920857
      outer loop
        vertex 191.952026 -5.942116 -25.914480
        vertex 195.951721 2.879982 -29.048203
        vertex 196.073029 -5.920563 -27.494123
        endloop
    endfacet
    facet normal -0.889232 -0.199288 -0.411766
      outer loop
        vertex 190.381439 -5.952492 -22.517683
        vertex 190.457123 2.851257 -26.942007
        vertex 191.952026 -5.942116 -25.914480
        endloop
    endfacet
    facet normal 0.004951 -0.999988 -0.000721
      outer loop
        vertex 190.457123 2.851257 -26.942007
        vertex 195.951721 2.879982 -29.048203
        vertex 201.628387 2.906971 -27.497690
        endloop
    endfacet
    facet normal 0.004951 -0.999987 -0.000734
      outer loop
        vertex 190.457123 2.851257 -26.942007
        vertex 201.628387 2.906971 -27.497690
        vertex 204.161560 2.916355 -23.198812
        endloop
    endfacet
    facet normal 0.004954 -0.999987 -0.000746
      outer loop
        vertex 190.457123 2.851257 -26.942007
        vertex 204.161560 2.916355 -23.198812
        vertex 202.067535 2.902603 -18.669693
        endloop
    endfacet
    facet normal 0.004950 -0.999987 -0.000741
      outer loop
        vertex 190.457123 2.851257 -26.942007
        vertex 202.067535 2.902603 -18.669693
        vertex 196.572845 2.873840 -16.563522
        endloop
    endfacet
    facet normal 0.004954 -0.999987 -0.000743
      outer loop
        vertex 190.457123 2.851257 -26.942007
        vertex 196.572845 2.873840 -16.563522
        vertex 190.896271 2.846870 -18.114006
        endloop
    endfacet
    facet normal 0.004942 -0.999987 -0.000743
      outer loop
        vertex 190.457123 2.851257 -26.942007
        vertex 190.896271 2.846870 -18.114006
        vertex 188.363037 2.837543 -22.412922
        endloop
    endfacet
    facet normal -0.843995 -0.199736 0.497773
      outer loop
        vertex 189.511139 11.639214 -16.934521
        vertex 186.344635 11.627464 -22.308180
        vertex 188.363037 2.837543 -22.412922
        endloop
    endfacet
    facet normal -0.258976 -0.168387 0.951093
      outer loop
        vertex 196.606903 11.672897 -14.996426
        vertex 189.511139 11.639214 -16.934521
        vertex 190.896271 2.846870 -18.114006
        endloop
    endfacet
    facet normal 0.353746 -0.165329 0.920614
      outer loop
        vertex 202.067535 2.902603 -18.669693
        vertex 196.606903 11.672897 -14.996426
        vertex 196.572845 2.873840 -16.563522
        endloop
    endfacet
    facet normal 0.891178 -0.191073 0.411453
      outer loop
        vertex 204.161560 2.916355 -23.198812
        vertex 203.475220 11.708832 -17.629148
        vertex 202.067535 2.902603 -18.669693
        endloop
    endfacet
    facet normal 0.845929 -0.190628 -0.498062
      outer loop
        vertex 202.926300 11.714325 -28.664158
        vertex 206.092804 11.726074 -23.290537
        vertex 204.161560 2.916355 -23.198812
        endloop
    endfacet
    facet normal 0.260627 -0.164405 -0.951338
      outer loop
        vertex 195.830566 11.680641 -30.602272
        vertex 202.926300 11.714325 -28.664158
        vertex 201.628387 2.906971 -27.497690
        endloop
    endfacet
    facet normal -0.352108 -0.167457 -0.920857
      outer loop
        vertex 190.457123 2.851257 -26.942007
        vertex 195.830566 11.680641 -30.602272
        vertex 195.951721 2.879982 -29.048203
        endloop
    endfacet
    facet normal -0.889236 -0.199292 -0.411754
      outer loop
        vertex 188.363037 2.837543 -22.412922
        vertex 188.962173 11.644669 -27.969543
        vertex 190.457123 2.851257 -26.942007
        endloop
    endfacet
    facet normal 0.004951 -0.999987 -0.000747
      outer loop
        vertex 188.962173 11.644669 -27.969543
        vertex 195.830566 11.680641 -30.602272
        vertex 202.926300 11.714325 -28.664158
        endloop
    endfacet
    facet normal 0.004952 -0.999987 -0.000731
      outer loop
        vertex 188.962173 11.644669 -27.969543
        vertex 202.926300 11.714325 -28.664158
        vertex 206.092804 11.726074 -23.290537
        endloop
    endfacet
    facet normal 0.004958 -0.999987 -0.000753
      outer loop
        vertex 188.962173 11.644669 -27.969543
        vertex 206.092804 11.726074 -23.290537
        vertex 203.475220 11.708832 -17.629148
        endloop
    endfacet
    facet normal 0.004948 -0.999987 -0.000740
      outer loop
        vertex 188.962173 11.644669 -27.969543
        vertex 203.475220 11.708832 -17.629148
        vertex 196.606903 11.672897 -14.996426
        endloop
    endfacet
    facet normal 0.004949 -0.999987 -0.000741
      outer loop
        vertex 188.962173 11.644669 -27.969543
        vertex 196.606903 11.672897 -14.996426
        vertex 189.511139 11.639214 -16.934521
        endloop
    endfacet
    facet normal 0.004969 -0.999987 -0.000742
      outer loop
        vertex 188.962173 11.644669 -27.969543
        vertex 189.511139 11.639214 -16.934521
        vertex 186.344635 11.627464 -22.308180
        endloop
    endfacet
    facet normal -0.843993 -0.199738 0.497775
      outer loop
        vertex 188.126038 20.431519 -15.755033
        vertex 184.326202 20.417480 -22.203400
        vertex 186.344635 11.627464 -22.308180
        endloop
    endfacet
    facet normal -0.258976 -0.168387 0.951093
      outer loop
        vertex 196.640961 20.471954 -13.429319
        vertex 188.126038 20.431519 -15.755033
        vertex 189.511139 11.639214 -16.934521
        endloop
    endfacet
    facet normal 0.353749 -0.165330 0.920613
      outer loop
        vertex 203.475220 11.708832 -17.629148
        vertex 196.640961 20.471954 -13.429319
        vertex 196.606903 11.672897 -14.996426
        endloop
    endfacet
    facet normal 0.891173 -0.191080 0.411459
      outer loop
        vertex 206.092804 11.726074 -23.290537
        vertex 204.882996 20.515118 -16.588614
        vertex 203.475220 11.708832 -17.629148
        endloop
    endfacet
    facet normal 0.845921 -0.190633 -0.498073
      outer loop
        vertex 204.224213 20.521660 -29.830568
        vertex 208.024109 20.535736 -23.382261
        vertex 206.092804 11.726074 -23.290537
        endloop
    endfacet
    facet normal 0.260633 -0.164400 -0.951338
      outer loop
        vertex 195.709351 20.481205 -32.156349
        vertex 204.224213 20.521660 -29.830568
        vertex 202.926300 11.714325 -28.664158
        endloop
    endfacet
    facet normal -0.352098 -0.167463 -0.920860
      outer loop
        vertex 188.962173 11.644669 -27.969543
        vertex 195.709351 20.481205 -32.156349
        vertex 195.830566 11.680641 -30.602272
        endloop
    endfacet
    facet normal -0.889242 -0.199281 -0.411748
      outer loop
        vertex 186.344635 11.627464 -22.308180
        vertex 187.467316 20.438061 -28.997023
        vertex 188.962173 11.644669 -27.969543
        endloop
    endfacet
    facet normal 0.004952 -0.999987 -0.000737
      outer loop
        vertex 187.467316 20.438061 -28.997023
        vertex 195.709351 20.481205 -32.156349
        vertex 204.224213 20.521660 -29.830568
        endloop
    endfacet
    facet normal 0.004952 -0.999987 -0.000735
      outer loop
        vertex 187.467316 20.438061 -28.997023
        vertex 204.224213 20.521660 -29.830568
        vertex 208.024109 20.535736 -23.382261
        endloop
    endfacet
    facet normal 0.004955 -0.999987 -0.000744
      outer loop
        vertex 187.467316 20.438061 -28.997023
        vertex 208.024109 20.535736 -23.382261
        vertex 204.882996 20.515118 -16.588614
        endloop
    endfacet
    facet normal 0.004953 -0.999987 -0.000741
      outer loop
        vertex 187.467316 20.438061 -28.997023
        vertex 204.882996 20.515118 -16.588614
        vertex 196.640961 20.471954 -13.429319
        endloop
    endfacet
    facet normal 0.004951 -0.999987 -0.000740
      outer loop
        vertex 187.467316 20.438061 -28.997023
        vertex 196.640961 20.471954 -13.429319
        vertex 188.126038 20.431519 -15.755033
        endloop
    endfacet
    facet normal 0.004951 -0.999987 -0.000740
      outer loop
        vertex 187.467316 20.438061 -28.997023
        vertex 188.126038 20.431519 -15.755033
        vertex 184.326202 20.417480 -22.203400
        endloop
    endfacet
    facet normal -0.843993 -0.199730 0.497779
      outer loop
        vertex 186.740997 29.223824 -14.575596
        vertex 182.307861 29.207439 -22.098629
        vertex 184.326202 20.417480 -22.203400
        endloop
    endfacet
    facet normal -0.258983 -0.168381 0.951092
      outer loop
        vertex 196.674988 29.271049 -11.862204
        vertex 186.740997 29.223824 -14.575596
        vertex 188.126038 20.431519 -15.755033
        endloop
    endfacet
    facet normal 0.353750 -0.165329 0.920612
      outer loop
        vertex 204.882996 20.515118 -16.588614
        vertex 196.674988 29.271049 -11.862204
        vertex 196.640961 20.471954 -13.429319
        endloop
    endfacet
    facet normal 0.891172 -0.191081 0.411462
      outer loop
        vertex 208.024109 20.535736 -23.382261
        vertex 206.290741 29.321365 -15.548031
        vertex 204.882996 20.515118 -16.588614
        endloop
    endfacet
    facet normal 0.845924 -0.190625 -0.498071
      outer loop
        vertex 205.522125 29.329014 -30.997055
        vertex 209.955322 29.345379 -23.473970
        vertex 208.024109 20.535736 -23.382261
        endloop
    endfacet
    facet normal 0.260624 -0.164407 -0.951339
      outer loop
        vertex 195.588104 29.281845 -33.710373
        vertex 205.522125 29.329014 -30.997055
        vertex 204.224213 20.521660 -29.830568
        endloop
    endfacet
    facet normal -0.352106 -0.167457 -0.920858
      outer loop
        vertex 187.467316 20.438061 -28.997023
        vertex 195.588104 29.281845 -33.710373
        vertex 195.709351 20.481205 -32.156349
        endloop
    endfacet
    facet normal -0.889238 -0.199284 -0.411754
      outer loop
        vertex 184.326202 20.417480 -22.203400
        vertex 185.972443 29.231453 -30.024549
        vertex 187.467316 20.438061 -28.997023
        endloop
    endfacet
    facet normal 0.004953 -0.999987 -0.000750
      outer loop
        vertex 185.972443 29.231453 -30.024549
        vertex 195.588104 29.281845 -33.710373
        vertex 205.522125 29.329014 -30.997055
        endloop
    endfacet
    facet normal 0.004953 -0.999987 -0.000744
      outer loop
        vertex 185.972443 29.231453 -30.024549
        vertex 205.522125 29.329014 -30.997055
        vertex 209.955322 29.345379 -23.473970
        endloop
    endfacet
    facet normal 0.004952 -0.999987 -0.000740
      outer loop
        vertex 185.972443 29.231453 -30.024549
        vertex 209.955322 29.345379 -23.473970
        vertex 206.290741 29.321365 -15.548031
        endloop
    endfacet
    facet normal 0.004950 -0.999987 -0.000737
      outer loop
        vertex 185.972443 29.231453 -30.024549
        vertex 206.290741 29.321365 -15.548031
        vertex 196.674988 29.271049 -11.862204
        endloop
    endfacet
    facet normal 0.004956 -0.999987 -0.000740
      outer loop
        vertex 185.972443 29.231453 -30.024549
        vertex 196.674988 29.271049 -11.862204
        vertex 186.740997 29.223824 -14.575596
        endloop
    endfacet
    facet normal 0.004952 -0.999987 -0.000740
      outer loop
        vertex 185.972443 29.231453 -30.024549
        vertex 186.740997 29.223824 -14.575596
        vertex 182.307861 29.207439 -22.098629
        endloop
    endfacet
    facet normal -0.843992 -0.199738 0.497777
      outer loop
        vertex 185.355865 38.016129 -13.396082
        vertex 180.289429 37.997437 -21.993849
        vertex 182.307861 29.207439 -22.098629
        endloop
    endfacet
    facet normal -0.258974 -0.168390 0.951093
      outer loop
        vertex 196.709106 38.070107 -10.295145
        vertex 185.355865 38.016129 -13.396082
        vertex 186.740997 29.223824 -14.575596
        endloop
    endfacet
    facet normal 0.353747 -0.165327 0.920614
      outer loop
        vertex 206.290741 29.321365 -15.548031
        vertex 196.709106 38.070107 -10.295145
        vertex 196.674988 29.271049 -11.862204
        endloop
    endfacet
    facet normal 0.891174 -0.191078 0.411458
      outer loop
        vertex 209.955322 29.345379 -23.473970
        vertex 207.698486 38.127632 -14.507486
        vertex 206.290741 29.321365 -15.548031
        endloop
    endfacet
    facet normal 0.845926 -0.190627 -0.498067
      outer loop
        vertex 206.820099 38.136368 -32.163494
        vertex 211.886566 38.155060 -23.565676
        vertex 209.955322 29.345379 -23.473970
        endloop
    endfacet
    facet normal 0.260622 -0.164404 -0.951340
      outer loop
        vertex 195.466888 38.082409 -35.264404
        vertex 206.820099 38.136368 -32.163494
        vertex 205.522125 29.329014 -30.997055
        endloop
    endfacet
    facet normal -0.352101 -0.167458 -0.920860
      outer loop
        vertex 185.972443 29.231453 -30.024549
        vertex 195.466888 38.082409 -35.264404
        vertex 195.588104 29.281845 -33.710373
        endloop
    endfacet
    facet normal -0.889240 -0.199288 -0.411748
      outer loop
        vertex 182.307861 29.207439 -22.098629
        vertex 184.477509 38.024902 -31.052057
        vertex 185.972443 29.231453 -30.024549
        endloop
    endfacet
    facet normal -0.004959 0.999987 0.000748
      outer loop
        vertex 180.289429 37.997437 -21.993849
        vertex 185.355865 38.016129 -13.396082
        vertex 196.709106 38.070107 -10.295145
        endloop
    endfacet
    facet normal -0.004952 0.999987 0.000738
      outer loop
        vertex 180.289429 37.997437 -21.993849
        vertex 196.709106 38.070107 -10.295145
        vertex 207.698486 38.127632 -14.507486
        endloop
    endfacet
    facet normal -0.004952 0.999987 0.000738
      outer loop
        vertex 180.289429 37.997437 -21.993849
        vertex 207.698486 38.127632 -14.507486
        vertex 211.886566 38.155060 -23.565676
        endloop
    endfacet
    facet normal -0.004951 0.999987 0.000744
      outer loop
        vertex 180.289429 37.997437 -21.993849
        vertex 211.886566 38.155060 -23.565676
        vertex 206.820099 38.136368 -32.163494
        endloop
    endfacet
    facet normal -0.004954 0.999987 0.000737
      outer loop
        vertex 180.289429 37.997437 -21.993849
        vertex 206.820099 38.136368 -32.163494
        vertex 195.466888 38.082409 -35.264404
        endloop
    endfacet
    facet normal -0.004947 0.999988 0.000745
      outer loop
        vertex 180.289429 37.997437 -21.993849
        vertex 195.466888 38.082409 -35.264404
        vertex 184.477509 38.024902 -31.052057
        endloop
    endfacet
    facet normal 0.928347 0.000000 0.371715
      outer loop
        vertex 215.490753 135.029526 -21.210960
        vertex 209.914062 135.029526 -7.283354
        vertex 209.914062 32.501183 -7.283383
        endloop
    endfacet
    facet normal 0.393858 0.000000 0.919171
      outer loop
        vertex 209.914062 135.029526 -7.283354
        vertex 196.450775 135.029526 -1.514435
        vertex 196.450775 32.501183 -1.514393
        endloop
    endfacet
    facet normal -0.393858 0.000000 0.919172
      outer loop
        vertex 196.450775 135.029526 -1.514435
        vertex 182.987488 135.029526 -7.283345
        vertex 182.987488 32.501183 -7.283373
        endloop
    endfacet
    facet normal -0.928346 0.000000 0.371718
      outer loop
        vertex 182.987488 135.029526 -7.283345
        vertex 177.410767 135.029572 -21.210901
        vertex 177.410767 32.501202 -21.210934
        endloop
    endfacet
    facet normal -0.928346 -0.000001 -0.371717
      outer loop
        vertex 177.410767 32.501202 -21.210934
        vertex 182.987396 135.029526 -35.138470
        vertex 182.987488 32.501183 -35.138519
        endloop
    endfacet
    facet normal -0.393861 0.000000 -0.919170
      outer loop
        vertex 182.987396 135.029526 -35.138470
        vertex 196.450775 135.029572 -40.907486
        vertex 196.450775 32.501183 -40.907497
        endloop
    endfacet
    facet normal 0.393862 0.000000 -0.919169
      outer loop
        vertex 196.450775 32.501183 -40.907497
        vertex 209.914062 135.029480 -35.138504
        vertex 209.914062 32.501183 -35.138504
        endloop
    endfacet
    facet normal 0.928346 0.000000 -0.371717
      outer loop
        vertex 209.914062 135.029480 -35.138504
        vertex 215.490753 135.029526 -21.210960
        vertex 215.490753 32.501183 -21.210941
        endloop
    endfacet
    facet normal 0.000000 -1.000000 0.000000
      outer loop
        vertex 215.490753 32.501183 -21.210941
        vertex 209.914062 32.501183 -7.283383
        vertex 196.450775 32.501183 -1.514393
        endloop
    endfacet
    facet normal 0.000000 -1.000000 0.000000
      outer loop
        vertex 215.490753 32.501183 -21.210941
        vertex 196.450775 32.501183 -1.514393
        vertex 182.987488 32.501183 -7.283373
        endloop
    endfacet
    facet normal -0.000001 -1.000000 -0.000001
      outer loop
        vertex 215.490753 32.501183 -21.210941
        vertex 182.987488 32.501183 -7.283373
        vertex 177.410767 32.501202 -21.210934
        endloop
    endfacet
    facet normal -0.000001 -1.000000 0.000001
      outer loop
        vertex 215.490753 32.501183 -21.210941
        vertex 177.410767 32.501202 -21.210934
        vertex 182.987488 32.501183 -35.138519
        endloop
    endfacet
    facet normal 0.000000 -1.000000 0.000000
      outer loop
        vertex 215.490753 32.501183 -21.210941
        vertex 182.987488 32.501183 -35.138519
        vertex 196.450775 32.501183 -40.907497
        endloop
    endfacet
    facet normal 0.000000 -1.000000 0.000000
      outer loop
        vertex 215.490753 32.501183 -21.210941
        vertex 196.450775 32.501183 -40.907497
        vertex 209.914062 32.501183 -35.138504
        endloop
    endfacet
    facet normal 0.000002 1.000000 0.000012
      outer loop
        vertex 209.914062 135.029480 -35.138504
        vertex 196.450775 135.029572 -40.907486
        vertex 182.987396 135.029526 -35.138470
        endloop
    endfacet
    facet normal 0.000002 1.000000 -0.000003
      outer loop
        vertex 209.914062 135.029480 -35.138504
        vertex 182.987396 135.029526 -35.138470
        vertex 177.410767 135.029572 -21.210901
        endloop
    endfacet
    facet normal 0.000004 1.000000 0.000002
      outer loop
        vertex 209.914062 135.029480 -35.138504
        vertex 177.410767 135.029572 -21.210901
        vertex 182.987488 135.029526 -7.283345
        endloop
    endfacet
    facet normal 0.000000 1.000000 -0.000001
      outer loop
        vertex 209.914062 135.029480 -35.138504
        vertex 182.987488 135.029526 -7.283345
        vertex 196.450775 135.029526 -1.514435
        endloop
    endfacet
    facet normal -0.000001 1.000000 -0.000002
      outer loop
        vertex 209.914062 135.029480 -35.138504
        vertex 196.450775 135.029526 -1.514435
        vertex 209.914062 135.029526 -7.283354
        endloop
    endfacet
    facet normal -0.000004 1.000000 -0.000002
      outer loop
        vertex 209.914062 135.029480 -35.138504
        vertex 209.914062 135.029526 -7.283354
        vertex 215.490753 135.029526 -21.210960
        endloop
    endfacet
    facet normal 0.001204 -0.305093 -0.952322
      outer loop
        vertex 89.915199 -46.420212 -46.510307
        vertex 304.595978 -313.312744 39.264732
        vertex 88.698349 -312.496582 38.730362
        endloop
    endfacet
    facet normal 0.999990 -0.003781 0.002473
      outer loop
        vertex 305.812866 -47.236328 -45.975952
        vertex 305.805237 -45.298996 -39.928745
        vertex 304.588348 -311.375397 45.311966
        endloop
    endfacet
    facet normal -0.001204 0.305093 0.952322
      outer loop
        vertex 304.588348 -311.375397 45.311966
        vertex 89.907532 -44.482880 -40.463097
        vertex 88.690681 -310.559235 44.777584
        endloop
    endfacet
    facet normal -0.999990 0.003779 -0.002479
      outer loop
        vertex 88.690681 -310.559235 44.777584
        vertex 89.915199 -46.420212 -46.510307
        vertex 88.698349 -312.496582 38.730362
        endloop
    endfacet
    facet normal -0.004355 -0.952314 0.305087
      outer loop
        vertex 88.698349 -312.496582 38.730362
        vertex 304.588348 -311.375397 45.311966
        vertex 88.690681 -310.559235 44.777584
        endloop
    endfacet
    facet normal 0.004355 0.952315 -0.305086
      outer loop
        vertex 89.915199 -46.420212 -46.510307
        vertex 89.907532 -44.482880 -40.463097
        vertex 305.805237 -45.298996 -39.928745
        endloop
    endfacet
    facet normal -0.538790 -0.247086 -0.805391
      outer loop
        vertex 94.401321 -44.615746 -46.273949
        vertex 88.187523 -313.608948 40.407303
        vertex 73.332748 -310.382385 49.354958
        endloop
    endfacet
    facet normal 0.842151 -0.182918 -0.507269
      outer loop
        vertex 94.401321 -44.615746 -46.273949
        vertex 97.879219 -43.020859 -41.075165
        vertex 91.665459 -312.013916 45.606148
        endloop
    endfacet
    facet normal 0.538791 0.247085 0.805390
      outer loop
        vertex 97.879219 -43.020859 -41.075165
        vertex 83.024483 -39.794312 -32.127499
        vertex 76.810646 -308.787415 54.553780
        endloop
    endfacet
    facet normal -0.842154 0.182917 0.507265
      outer loop
        vertex 76.810646 -308.787415 54.553780
        vertex 79.546547 -41.389313 -37.326328
        vertex 73.332748 -310.382385 49.354958
        endloop
    endfacet
    facet normal -0.021977 -0.951569 0.306648
      outer loop
        vertex 88.187523 -313.608948 40.407303
        vertex 91.665459 -312.013916 45.606148
        vertex 76.810646 -308.787415 54.553780
        endloop
    endfacet
    facet normal 0.021989 0.951573 -0.306634
      outer loop
        vertex 94.401321 -44.615746 -46.273949
        vertex 83.024483 -39.794312 -32.127499
        vertex 97.879219 -43.020859 -41.075165
        endloop
    endfacet
    facet normal 0.008681 -0.342934 0.939320
      outer loop
        vertex 80.771484 -52.892418 -36.432850
        vertex 313.589661 -51.297531 -38.002228
        vertex 313.515350 -34.352875 -31.815264
        endloop
    endfacet
    facet normal 0.004123 -0.939337 -0.342972
      outer loop
        vertex 313.589661 -51.297531 -38.002228
        vertex 80.714188 -50.628510 -42.633739
        vertex 313.532440 -49.033737 -44.203033
        endloop
    endfacet
    facet normal -0.008681 0.342936 -0.939319
      outer loop
        vertex 80.714188 -50.628510 -42.633739
        vertex 80.639763 -33.683853 -36.446732
        vertex 313.457977 -32.088966 -38.016132
        endloop
    endfacet
    facet normal -0.004123 0.939332 0.342984
      outer loop
        vertex 313.457977 -32.088966 -38.016132
        vertex 80.697060 -35.947723 -30.245897
        vertex 313.515350 -34.352875 -31.815264
        endloop
    endfacet
    facet normal 0.999954 0.006858 -0.006748
      outer loop
        vertex 313.515350 -34.352875 -31.815264
        vertex 313.532440 -49.033737 -44.203033
        vertex 313.457977 -32.088966 -38.016132
        endloop
    endfacet
    facet normal -0.999954 -0.006852 0.006738
      outer loop
        vertex 80.697060 -35.947723 -30.245897
        vertex 80.639763 -33.683853 -36.446732
        vertex 80.714188 -50.628510 -42.633739
        endloop
    endfacet
    facet normal -0.583412 0.243238 0.774897
      outer loop
        vertex 311.460754 -32.070007 -35.408215
        vertex 300.844299 -313.010315 44.785233
        vertex 315.625793 -309.525116 54.820061
        endloop
    endfacet
    facet normal -0.812039 -0.191472 -0.551299
      outer loop
        vertex 300.844299 -313.010315 44.785233
        vertex 300.565674 -37.175446 -50.604897
        vertex 304.730713 -314.630615 39.623466
        endloop
    endfacet
    facet normal 0.583415 -0.243238 -0.774895
      outer loop
        vertex 304.730713 -314.630615 39.623466
        vertex 315.347168 -33.690338 -40.570068
        vertex 319.512054 -311.145355 49.658260
        endloop
    endfacet
    facet normal 0.812044 0.191470 0.551293
      outer loop
        vertex 315.347168 -33.690338 -40.570068
        vertex 311.460754 -32.070007 -35.408215
        vertex 315.625793 -309.525116 54.820061
        endloop
    endfacet
    facet normal 0.014280 -0.950882 0.309224
      outer loop
        vertex 315.625793 -309.525116 54.820061
        vertex 304.730713 -314.630615 39.623466
        vertex 319.512054 -311.145355 49.658260
        endloop
    endfacet
    facet normal -0.014266 0.950881 -0.309227
      outer loop
        vertex 311.460754 -32.070007 -35.408215
        vertex 315.347168 -33.690338 -40.570068
        vertex 300.565674 -37.175446 -50.604897
        endloop
    endfacet
 endsolid
