 solid SafeWork_Object 
    facet normal -0.342021 0.939692 -0.000002
      outer loop
        vertex -202.502396 -14.085675 1.210937
        vertex -202.502426 -14.085654 13.710934
        vertex -179.010040 -5.535119 1.210937
        endloop
    endfacet
    facet normal -0.538940 -0.842344 0.000000
      outer loop
        vertex -192.924423 -20.213749 1.210937
        vertex -192.924454 -20.213728 13.710934
        vertex -202.502396 -14.085675 1.210937
        endloop
    endfacet
    facet normal -0.082997 -0.996550 0.000001
      outer loop
        vertex -181.627548 -21.154604 1.210937
        vertex -181.627579 -21.154583 13.710934
        vertex -192.924423 -20.213749 1.210937
        endloop
    endfacet
    facet normal 0.096334 -0.995349 0.000002
      outer loop
        vertex -173.607498 -20.378391 1.210937
        vertex -173.607529 -20.378370 13.710934
        vertex -181.627548 -21.154604 1.210937
        endloop
    endfacet
    facet normal 0.939692 0.342022 0.000002
      outer loop
        vertex -179.010040 -5.535119 1.210937
        vertex -179.010071 -5.535098 13.710934
        vertex -173.607498 -20.378391 1.210937
        endloop
    endfacet
    facet normal 0.499992 -0.866030 0.000002
      outer loop
        vertex -10.717959 10.718063 -0.039063
        vertex -10.717985 10.718088 14.960935
        vertex -14.641157 8.453052 -0.039063
        endloop
    endfacet
    facet normal 0.866020 -0.500010 0.000002
      outer loop
        vertex -14.641157 8.453052 -0.039063
        vertex -14.641183 8.453076 14.960935
        vertex -16.906178 4.530022 -0.039063
        endloop
    endfacet
    facet normal 1.000000 0.000000 0.000002
      outer loop
        vertex -16.906178 4.530022 -0.039063
        vertex -16.906204 4.530047 14.960935
        vertex -16.906178 0.000000 -0.039063
        endloop
    endfacet
    facet normal 0.866028 0.499996 0.000001
      outer loop
        vertex -16.906178 0.000000 -0.039063
        vertex -16.906204 0.000025 14.960935
        vertex -14.641154 -3.923182 -0.039063
        endloop
    endfacet
    facet normal 0.499992 0.866030 -0.000001
      outer loop
        vertex -14.641154 -3.923182 -0.039063
        vertex -14.641180 -3.923156 14.960935
        vertex -10.717957 -6.188193 -0.039063
        endloop
    endfacet
    facet normal 0.000000 1.000000 -0.000002
      outer loop
        vertex -10.717957 -6.188193 -0.039063
        vertex -10.717982 -6.188168 14.960935
        vertex -6.187915 -6.188193 -0.039063
        endloop
    endfacet
    facet normal -0.500007 0.866022 -0.000002
      outer loop
        vertex -6.187915 -6.188193 -0.039063
        vertex -6.187941 -6.188168 14.960935
        vertex -2.264869 -3.923182 -0.039062
        endloop
    endfacet
    facet normal -0.866028 0.499995 -0.000002
      outer loop
        vertex -2.264869 -3.923182 -0.039062
        vertex -2.264895 -3.923156 14.960935
        vertex 0.000151 0.000000 -0.039062
        endloop
    endfacet
    facet normal -1.000000 0.000000 -0.000002
      outer loop
        vertex 0.000151 0.000000 -0.039062
        vertex 0.000125 0.000025 14.960935
        vertex 0.000150 4.530023 -0.039062
        endloop
    endfacet
    facet normal -0.866020 -0.500010 -0.000001
      outer loop
        vertex 0.000150 4.530023 -0.039062
        vertex 0.000124 4.530048 14.960935
        vertex -2.264872 8.453052 -0.039062
        endloop
    endfacet
    facet normal -0.500007 -0.866022 0.000001
      outer loop
        vertex -2.264872 8.453052 -0.039062
        vertex -2.264898 8.453076 14.960935
        vertex -6.187918 10.718063 -0.039063
        endloop
    endfacet
    facet normal 0.000000 -1.000000 0.000002
      outer loop
        vertex -6.187918 10.718063 -0.039063
        vertex -6.187944 10.718088 14.960935
        vertex -10.717959 10.718063 -0.039063
        endloop
    endfacet
    facet normal 0.398392 0.917215 -0.000001
      outer loop
        vertex -177.004883 30.193129 -0.039063
        vertex -177.004913 30.193153 14.960934
        vertex -141.484772 14.764991 -0.039063
        endloop
    endfacet
    facet normal -0.018789 0.999824 -0.000002
      outer loop
        vertex -141.484772 14.764991 -0.039063
        vertex -141.484802 14.765016 14.960935
        vertex -8.452940 17.264990 -0.039063
        endloop
    endfacet
    facet normal 0.000000 1.000000 -0.000002
      outer loop
        vertex -8.452940 17.264990 -0.039063
        vertex -8.452966 17.265015 14.960935
        vertex -4.433764 17.264990 -0.039063
        endloop
    endfacet
    facet normal 0.500006 0.866022 -0.000001
      outer loop
        vertex -4.433764 17.264990 -0.039063
        vertex -4.433790 17.265015 14.960935
        vertex 2.527774 13.245678 -0.039062
        endloop
    endfacet
    facet normal 0.866020 0.500009 0.000001
      outer loop
        vertex 2.527774 13.245678 -0.039062
        vertex 2.527748 13.245703 14.960935
        vertex 6.547104 6.284171 -0.039062
        endloop
    endfacet
    facet normal 1.000000 0.000000 0.000002
      outer loop
        vertex 6.547104 6.284171 -0.039062
        vertex 6.547078 6.284196 14.960935
        vertex 6.547105 -1.754300 -0.039062
        endloop
    endfacet
    facet normal 0.866020 -0.500009 0.000002
      outer loop
        vertex 6.547105 -1.754300 -0.039062
        vertex 6.547079 -1.754275 14.960935
        vertex 2.527777 -8.715808 -0.039062
        endloop
    endfacet
    facet normal 0.499992 -0.866030 0.000002
      outer loop
        vertex 2.527777 -8.715808 -0.039062
        vertex 2.527751 -8.715783 14.960935
        vertex -4.433758 -12.734967 -0.039063
        endloop
    endfacet
    facet normal 0.000000 -1.000000 0.000002
      outer loop
        vertex -4.433758 -12.734967 -0.039063
        vertex -4.433784 -12.734942 14.960935
        vertex -8.452935 -12.734967 -0.039063
        endloop
    endfacet
    facet normal -0.018789 -0.999824 0.000002
      outer loop
        vertex -8.452935 -12.734967 -0.039063
        vertex -8.452961 -12.734942 14.960935
        vertex -141.484772 -10.234974 -0.039063
        endloop
    endfacet
    facet normal 0.406623 -0.913596 0.000002
      outer loop
        vertex -141.484772 -10.234974 -0.039063
        vertex -141.484802 -10.234949 14.960935
        vertex -172.306381 -23.953064 -0.039063
        endloop
    endfacet
    facet normal -0.939692 -0.342022 -0.000001
      outer loop
        vertex -172.306381 -23.953064 -0.039063
        vertex -172.306412 -23.953039 14.960934
        vertex -184.961151 10.815412 -0.039063
        endloop
    endfacet
    facet normal 0.342016 -0.939694 0.000002
      outer loop
        vertex -184.961151 10.815412 -0.039063
        vertex -184.961182 10.815436 14.960934
        vertex -208.453491 2.265008 -0.039063
        endloop
    endfacet
    facet normal -0.958701 0.284416 -0.000002
      outer loop
        vertex -208.453491 2.265008 -0.039063
        vertex -208.453522 2.265033 14.960934
        vertex -203.378555 19.371458 -0.039063
        endloop
    endfacet
    facet normal -0.657023 0.753871 -0.000003
      outer loop
        vertex -203.378555 19.371458 -0.039063
        vertex -203.378586 19.371483 14.960934
        vertex -194.149399 27.414965 -0.039063
        endloop
    endfacet
    facet normal -0.159957 0.987124 -0.000002
      outer loop
        vertex -194.149399 27.414965 -0.039063
        vertex -194.149429 27.414989 14.960934
        vertex -177.004883 30.193129 -0.039063
        endloop
    endfacet
    facet normal 0.000000 0.000000 1.000000
      outer loop
        vertex -194.149429 27.414989 14.960934
        vertex -203.378586 19.371483 14.960934
        vertex -184.961182 10.815436 14.960934
        endloop
    endfacet
    facet normal 0.000000 0.000000 1.000000
      outer loop
        vertex -177.004913 30.193153 14.960934
        vertex -194.149429 27.414989 14.960934
        vertex -184.961182 10.815436 14.960934
        endloop
    endfacet
    facet normal 0.000000 0.000000 1.000000
      outer loop
        vertex -172.306412 -23.953039 14.960934
        vertex -141.484802 -10.234949 14.960935
        vertex -184.961182 10.815436 14.960934
        endloop
    endfacet
    facet normal 0.000000 0.000000 1.000000
      outer loop
        vertex -8.452966 17.265015 14.960935
        vertex -17.142414 17.101746 14.960935
        vertex -14.641183 8.453076 14.960935
        endloop
    endfacet
    facet normal 0.000000 0.000000 1.000000
      outer loop
        vertex -4.433790 17.265015 14.960935
        vertex -8.452966 17.265015 14.960935
        vertex -10.717985 10.718088 14.960935
        endloop
    endfacet
    facet normal 0.000000 0.000000 1.000000
      outer loop
        vertex 2.527748 13.245703 14.960935
        vertex -4.433790 17.265015 14.960935
        vertex -6.187944 10.718088 14.960935
        endloop
    endfacet
    facet normal 0.000000 0.000000 1.000000
      outer loop
        vertex -6.187944 10.718088 14.960935
        vertex -2.264898 8.453076 14.960935
        vertex 2.527748 13.245703 14.960935
        endloop
    endfacet
    facet normal 0.000000 0.000000 1.000000
      outer loop
        vertex -2.264898 8.453076 14.960935
        vertex 0.000124 4.530048 14.960935
        vertex 2.527748 13.245703 14.960935
        endloop
    endfacet
    facet normal 0.000000 0.000000 1.000000
      outer loop
        vertex 0.000124 4.530048 14.960935
        vertex 0.000125 0.000025 14.960935
        vertex 6.547078 6.284196 14.960935
        endloop
    endfacet
    facet normal 0.000000 0.000000 1.000000
      outer loop
        vertex -14.641180 -3.923156 14.960935
        vertex -16.906204 0.000025 14.960935
        vertex -17.142408 -12.571673 14.960935
        endloop
    endfacet
    facet normal 0.000000 0.000000 1.000000
      outer loop
        vertex -10.717982 -6.188168 14.960935
        vertex -14.641180 -3.923156 14.960935
        vertex -8.452961 -12.734942 14.960935
        endloop
    endfacet
    facet normal 0.000000 0.000000 1.000000
      outer loop
        vertex -6.187941 -6.188168 14.960935
        vertex -10.717982 -6.188168 14.960935
        vertex -4.433784 -12.734942 14.960935
        endloop
    endfacet
    facet normal 0.000000 0.000000 1.000000
      outer loop
        vertex 2.527751 -8.715783 14.960935
        vertex -2.264895 -3.923156 14.960935
        vertex -6.187941 -6.188168 14.960935
        endloop
    endfacet
    facet normal 0.000000 0.000000 1.000000
      outer loop
        vertex 2.527751 -8.715783 14.960935
        vertex 6.547079 -1.754275 14.960935
        vertex 0.000125 0.000025 14.960935
        endloop
    endfacet
    facet normal 0.000000 0.000000 1.000000
      outer loop
        vertex -17.142414 17.101746 14.960935
        vertex -141.484802 14.765016 14.960935
        vertex -17.142408 -12.571673 14.960935
        endloop
    endfacet
    facet normal 0.000000 0.000000 1.000000
      outer loop
        vertex -179.010071 -5.535098 13.710934
        vertex -202.502426 -14.085654 13.710934
        vertex -192.924454 -20.213728 13.710934
        endloop
    endfacet
    facet normal 0.000000 0.000000 1.000000
      outer loop
        vertex -181.627579 -21.154583 13.710934
        vertex -173.607529 -20.378370 13.710934
        vertex -179.010071 -5.535098 13.710934
        endloop
    endfacet
    facet normal 0.000000 0.000000 1.000000
      outer loop
        vertex -177.004883 30.193129 -0.039063
        vertex -194.149399 27.414965 -0.039063
        vertex -184.961151 10.815412 -0.039063
        endloop
    endfacet
    facet normal 0.000000 0.000000 1.000000
      outer loop
        vertex -172.306381 -23.953064 -0.039063
        vertex -141.484772 -10.234974 -0.039063
        vertex -184.961151 10.815412 -0.039063
        endloop
    endfacet
    facet normal 0.000000 0.000000 1.000000
      outer loop
        vertex -194.149399 27.414965 -0.039063
        vertex -203.378555 19.371458 -0.039063
        vertex -184.961151 10.815412 -0.039063
        endloop
    endfacet
    facet normal 0.000000 0.000000 1.000000
      outer loop
        vertex -17.142387 17.101721 -0.039063
        vertex -141.484772 14.764991 -0.039063
        vertex -17.142382 -12.571698 -0.039063
        endloop
    endfacet
    facet normal 0.000000 0.000000 1.000000
      outer loop
        vertex -14.641154 -3.923182 -0.039063
        vertex -16.906178 0.000000 -0.039063
        vertex -17.142382 -12.571698 -0.039063
        endloop
    endfacet
    facet normal 0.000000 0.000000 1.000000
      outer loop
        vertex 2.527777 -8.715808 -0.039062
        vertex 6.547105 -1.754300 -0.039062
        vertex 0.000151 0.000000 -0.039062
        endloop
    endfacet
    facet normal 0.000000 0.000000 1.000000
      outer loop
        vertex 0.000150 4.530023 -0.039062
        vertex 0.000151 0.000000 -0.039062
        vertex 6.547104 6.284171 -0.039062
        endloop
    endfacet
    facet normal 0.000000 0.000000 1.000000
      outer loop
        vertex 2.527777 -8.715808 -0.039062
        vertex -2.264869 -3.923182 -0.039062
        vertex -6.187915 -6.188193 -0.039063
        endloop
    endfacet
    facet normal 0.000000 0.000000 1.000000
      outer loop
        vertex -6.187915 -6.188193 -0.039063
        vertex -10.717957 -6.188193 -0.039063
        vertex -4.433758 -12.734967 -0.039063
        endloop
    endfacet
    facet normal 0.000000 0.000000 1.000000
      outer loop
        vertex -10.717957 -6.188193 -0.039063
        vertex -14.641154 -3.923182 -0.039063
        vertex -8.452935 -12.734967 -0.039063
        endloop
    endfacet
    facet normal 0.000000 0.000000 1.000000
      outer loop
        vertex -8.452940 17.264990 -0.039063
        vertex -17.142387 17.101721 -0.039063
        vertex -14.641157 8.453052 -0.039063
        endloop
    endfacet
    facet normal 0.000000 0.000000 1.000000
      outer loop
        vertex -6.187918 10.718063 -0.039063
        vertex -2.264872 8.453052 -0.039062
        vertex 2.527774 13.245678 -0.039062
        endloop
    endfacet
    facet normal 0.000000 0.000000 1.000000
      outer loop
        vertex 2.527774 13.245678 -0.039062
        vertex -4.433764 17.264990 -0.039063
        vertex -6.187918 10.718063 -0.039063
        endloop
    endfacet
    facet normal 0.000000 0.000000 1.000000
      outer loop
        vertex -4.433764 17.264990 -0.039063
        vertex -8.452940 17.264990 -0.039063
        vertex -10.717959 10.718063 -0.039063
        endloop
    endfacet
    facet normal 0.000000 0.000000 1.000000
      outer loop
        vertex -2.264872 8.453052 -0.039062
        vertex 0.000150 4.530023 -0.039062
        vertex 2.527774 13.245678 -0.039062
        endloop
    endfacet
    facet normal 0.000000 0.000000 -1.000000
      outer loop
        vertex -181.627548 -21.154604 1.210937
        vertex -192.924423 -20.213749 1.210937
        vertex -179.010040 -5.535119 1.210937
        endloop
    endfacet
    facet normal 0.000000 0.000000 -1.000000
      outer loop
        vertex -179.010040 -5.535119 1.210937
        vertex -173.607498 -20.378391 1.210937
        vertex -181.627548 -21.154604 1.210937
        endloop
    endfacet
    facet normal 0.000000 0.000000 -1.000000
      outer loop
        vertex -173.607498 -20.378391 1.210937
        vertex -181.627548 -21.154604 1.210937
        vertex -192.924423 -20.213749 1.210937
        endloop
    endfacet
    facet normal 0.000000 0.000000 -1.000000
      outer loop
        vertex -173.607498 -20.378391 1.210937
        vertex -192.924423 -20.213749 1.210937
        vertex -202.502396 -14.085675 1.210937
        endloop
    endfacet
    facet normal 0.000000 0.000000 -1.000000
      outer loop
        vertex -173.607498 -20.378391 1.210937
        vertex -202.502396 -14.085675 1.210937
        vertex -179.010040 -5.535119 1.210937
        endloop
    endfacet
    facet normal -0.342021 0.939692 -0.000002
      outer loop
        vertex -202.502426 -14.085654 13.710934
        vertex -179.010071 -5.535098 13.710934
        vertex -179.010040 -5.535119 1.210937
        endloop
    endfacet
    facet normal -0.538940 -0.842344 0.000000
      outer loop
        vertex -192.924454 -20.213728 13.710934
        vertex -202.502426 -14.085654 13.710934
        vertex -202.502396 -14.085675 1.210937
        endloop
    endfacet
    facet normal -0.082997 -0.996550 0.000001
      outer loop
        vertex -181.627579 -21.154583 13.710934
        vertex -192.924454 -20.213728 13.710934
        vertex -192.924423 -20.213749 1.210937
        endloop
    endfacet
    facet normal 0.096334 -0.995349 0.000002
      outer loop
        vertex -173.607529 -20.378370 13.710934
        vertex -181.627579 -21.154583 13.710934
        vertex -181.627548 -21.154604 1.210937
        endloop
    endfacet
    facet normal 0.939692 0.342022 0.000002
      outer loop
        vertex -179.010071 -5.535098 13.710934
        vertex -173.607529 -20.378370 13.710934
        vertex -173.607498 -20.378391 1.210937
        endloop
    endfacet
    facet normal 0.000000 0.000000 1.000000
      outer loop
        vertex -10.717959 10.718063 -0.039063
        vertex -14.641157 8.453052 -0.039063
        vertex -16.906178 4.530022 -0.039063
        endloop
    endfacet
    facet normal 0.000000 0.000000 1.000000
      outer loop
        vertex -10.717959 10.718063 -0.039063
        vertex -16.906178 4.530022 -0.039063
        vertex -16.906178 0.000000 -0.039063
        endloop
    endfacet
    facet normal 0.000000 0.000000 1.000000
      outer loop
        vertex -10.717959 10.718063 -0.039063
        vertex -16.906178 0.000000 -0.039063
        vertex -14.641154 -3.923182 -0.039063
        endloop
    endfacet
    facet normal 0.000000 0.000000 1.000000
      outer loop
        vertex -10.717959 10.718063 -0.039063
        vertex -14.641154 -3.923182 -0.039063
        vertex -10.717957 -6.188193 -0.039063
        endloop
    endfacet
    facet normal 0.000000 0.000000 1.000000
      outer loop
        vertex -10.717959 10.718063 -0.039063
        vertex -10.717957 -6.188193 -0.039063
        vertex -6.187915 -6.188193 -0.039063
        endloop
    endfacet
    facet normal 0.000000 0.000000 1.000000
      outer loop
        vertex -10.717959 10.718063 -0.039063
        vertex -6.187915 -6.188193 -0.039063
        vertex -2.264869 -3.923182 -0.039062
        endloop
    endfacet
    facet normal 0.000000 0.000000 1.000000
      outer loop
        vertex -10.717959 10.718063 -0.039063
        vertex -2.264869 -3.923182 -0.039062
        vertex 0.000151 0.000000 -0.039062
        endloop
    endfacet
    facet normal 0.000000 0.000000 1.000000
      outer loop
        vertex -10.717959 10.718063 -0.039063
        vertex 0.000151 0.000000 -0.039062
        vertex 0.000150 4.530023 -0.039062
        endloop
    endfacet
    facet normal 0.000000 0.000000 1.000000
      outer loop
        vertex -10.717959 10.718063 -0.039063
        vertex 0.000150 4.530023 -0.039062
        vertex -2.264872 8.453052 -0.039062
        endloop
    endfacet
    facet normal 0.000000 0.000000 1.000000
      outer loop
        vertex -10.717959 10.718063 -0.039063
        vertex -2.264872 8.453052 -0.039062
        vertex -6.187918 10.718063 -0.039063
        endloop
    endfacet
    facet normal 0.499992 -0.866030 0.000002
      outer loop
        vertex -10.717985 10.718088 14.960935
        vertex -14.641183 8.453076 14.960935
        vertex -14.641157 8.453052 -0.039063
        endloop
    endfacet
    facet normal 0.866020 -0.500010 0.000002
      outer loop
        vertex -14.641183 8.453076 14.960935
        vertex -16.906204 4.530047 14.960935
        vertex -16.906178 4.530022 -0.039063
        endloop
    endfacet
    facet normal 1.000000 0.000000 0.000002
      outer loop
        vertex -16.906204 4.530047 14.960935
        vertex -16.906204 0.000025 14.960935
        vertex -16.906178 0.000000 -0.039063
        endloop
    endfacet
    facet normal 0.866028 0.499996 0.000001
      outer loop
        vertex -16.906204 0.000025 14.960935
        vertex -14.641180 -3.923156 14.960935
        vertex -14.641154 -3.923182 -0.039063
        endloop
    endfacet
    facet normal 0.499992 0.866030 -0.000001
      outer loop
        vertex -14.641180 -3.923156 14.960935
        vertex -10.717982 -6.188168 14.960935
        vertex -10.717957 -6.188193 -0.039063
        endloop
    endfacet
    facet normal 0.000000 1.000000 -0.000002
      outer loop
        vertex -10.717982 -6.188168 14.960935
        vertex -6.187941 -6.188168 14.960935
        vertex -6.187915 -6.188193 -0.039063
        endloop
    endfacet
    facet normal -0.500007 0.866022 -0.000002
      outer loop
        vertex -6.187941 -6.188168 14.960935
        vertex -2.264895 -3.923156 14.960935
        vertex -2.264869 -3.923182 -0.039062
        endloop
    endfacet
    facet normal -0.866028 0.499995 -0.000002
      outer loop
        vertex -2.264895 -3.923156 14.960935
        vertex 0.000125 0.000025 14.960935
        vertex 0.000151 0.000000 -0.039062
        endloop
    endfacet
    facet normal -1.000000 0.000000 -0.000002
      outer loop
        vertex 0.000125 0.000025 14.960935
        vertex 0.000124 4.530048 14.960935
        vertex 0.000150 4.530023 -0.039062
        endloop
    endfacet
    facet normal -0.866020 -0.500010 -0.000001
      outer loop
        vertex 0.000124 4.530048 14.960935
        vertex -2.264898 8.453076 14.960935
        vertex -2.264872 8.453052 -0.039062
        endloop
    endfacet
    facet normal -0.500007 -0.866022 0.000001
      outer loop
        vertex -2.264898 8.453076 14.960935
        vertex -6.187944 10.718088 14.960935
        vertex -6.187918 10.718063 -0.039063
        endloop
    endfacet
    facet normal 0.000000 -1.000000 0.000002
      outer loop
        vertex -6.187944 10.718088 14.960935
        vertex -10.717985 10.718088 14.960935
        vertex -10.717959 10.718063 -0.039063
        endloop
    endfacet
    facet normal 0.000000 0.000000 -1.000000
      outer loop
        vertex -203.378555 19.371458 -0.039063
        vertex -194.149399 27.414965 -0.039063
        vertex -184.961151 10.815412 -0.039063
        endloop
    endfacet
    facet normal 0.000000 0.000000 -1.000000
      outer loop
        vertex -184.961151 10.815412 -0.039063
        vertex -194.149399 27.414965 -0.039063
        vertex -177.004883 30.193129 -0.039063
        endloop
    endfacet
    facet normal 0.000000 0.000000 -1.000000
      outer loop
        vertex -184.961151 10.815412 -0.039063
        vertex -177.004883 30.193129 -0.039063
        vertex -172.306381 -23.953064 -0.039063
        endloop
    endfacet
    facet normal 0.000000 0.000000 -1.000000
      outer loop
        vertex -172.306381 -23.953064 -0.039063
        vertex -177.004883 30.193129 -0.039063
        vertex -141.484772 14.764991 -0.039063
        endloop
    endfacet
    facet normal 0.000000 0.000000 -1.000000
      outer loop
        vertex -172.306381 -23.953064 -0.039063
        vertex -141.484772 14.764991 -0.039063
        vertex -141.484772 -10.234974 -0.039063
        endloop
    endfacet
    facet normal 0.000000 0.000000 -1.000000
      outer loop
        vertex -141.484772 -10.234974 -0.039063
        vertex -141.484772 14.764991 -0.039063
        vertex -8.452940 17.264990 -0.039063
        endloop
    endfacet
    facet normal 0.000000 0.000000 -1.000000
      outer loop
        vertex -141.484772 -10.234974 -0.039063
        vertex -8.452940 17.264990 -0.039063
        vertex -8.452935 -12.734967 -0.039063
        endloop
    endfacet
    facet normal 0.000000 0.000000 -1.000000
      outer loop
        vertex -8.452935 -12.734967 -0.039063
        vertex -8.452940 17.264990 -0.039063
        vertex -4.433764 17.264990 -0.039063
        endloop
    endfacet
    facet normal 0.000000 0.000000 -1.000000
      outer loop
        vertex -8.452935 -12.734967 -0.039063
        vertex -4.433764 17.264990 -0.039063
        vertex -4.433758 -12.734967 -0.039063
        endloop
    endfacet
    facet normal 0.000000 0.000000 -1.000000
      outer loop
        vertex -4.433758 -12.734967 -0.039063
        vertex -4.433764 17.264990 -0.039063
        vertex 2.527774 13.245678 -0.039062
        endloop
    endfacet
    facet normal 0.000000 0.000000 -1.000000
      outer loop
        vertex -4.433758 -12.734967 -0.039063
        vertex 2.527774 13.245678 -0.039062
        vertex 2.527777 -8.715808 -0.039062
        endloop
    endfacet
    facet normal 0.000000 0.000000 -1.000000
      outer loop
        vertex 2.527777 -8.715808 -0.039062
        vertex 2.527774 13.245678 -0.039062
        vertex 6.547104 6.284171 -0.039062
        endloop
    endfacet
    facet normal 0.000000 0.000000 -1.000000
      outer loop
        vertex 2.527777 -8.715808 -0.039062
        vertex 6.547104 6.284171 -0.039062
        vertex 6.547105 -1.754300 -0.039062
        endloop
    endfacet
    facet normal 0.000000 0.000000 -1.000000
      outer loop
        vertex -203.378555 19.371458 -0.039063
        vertex -184.961151 10.815412 -0.039063
        vertex -208.453491 2.265008 -0.039063
        endloop
    endfacet
    facet normal 0.398392 0.917215 -0.000001
      outer loop
        vertex -177.004913 30.193153 14.960934
        vertex -141.484802 14.765016 14.960935
        vertex -141.484772 14.764991 -0.039063
        endloop
    endfacet
    facet normal -0.018789 0.999824 -0.000002
      outer loop
        vertex -141.484802 14.765016 14.960935
        vertex -8.452966 17.265015 14.960935
        vertex -8.452940 17.264990 -0.039063
        endloop
    endfacet
    facet normal 0.000000 1.000000 -0.000002
      outer loop
        vertex -8.452966 17.265015 14.960935
        vertex -4.433790 17.265015 14.960935
        vertex -4.433764 17.264990 -0.039063
        endloop
    endfacet
    facet normal 0.500006 0.866022 -0.000001
      outer loop
        vertex -4.433790 17.265015 14.960935
        vertex 2.527748 13.245703 14.960935
        vertex 2.527774 13.245678 -0.039062
        endloop
    endfacet
    facet normal 0.866020 0.500010 0.000001
      outer loop
        vertex 2.527748 13.245703 14.960935
        vertex 6.547078 6.284196 14.960935
        vertex 6.547104 6.284171 -0.039062
        endloop
    endfacet
    facet normal 1.000000 0.000000 0.000002
      outer loop
        vertex 6.547078 6.284196 14.960935
        vertex 6.547079 -1.754275 14.960935
        vertex 6.547105 -1.754300 -0.039062
        endloop
    endfacet
    facet normal 0.866020 -0.500009 0.000002
      outer loop
        vertex 6.547079 -1.754275 14.960935
        vertex 2.527751 -8.715783 14.960935
        vertex 2.527777 -8.715808 -0.039062
        endloop
    endfacet
    facet normal 0.499992 -0.866030 0.000002
      outer loop
        vertex 2.527751 -8.715783 14.960935
        vertex -4.433784 -12.734942 14.960935
        vertex -4.433758 -12.734967 -0.039063
        endloop
    endfacet
    facet normal 0.000000 -1.000000 0.000002
      outer loop
        vertex -4.433784 -12.734942 14.960935
        vertex -8.452961 -12.734942 14.960935
        vertex -8.452935 -12.734967 -0.039063
        endloop
    endfacet
    facet normal -0.018789 -0.999823 0.000002
      outer loop
        vertex -8.452961 -12.734942 14.960935
        vertex -141.484802 -10.234949 14.960935
        vertex -141.484772 -10.234974 -0.039063
        endloop
    endfacet
    facet normal 0.406623 -0.913596 0.000002
      outer loop
        vertex -141.484802 -10.234949 14.960935
        vertex -172.306412 -23.953039 14.960934
        vertex -172.306381 -23.953064 -0.039063
        endloop
    endfacet
    facet normal -0.939692 -0.342022 -0.000001
      outer loop
        vertex -172.306412 -23.953039 14.960934
        vertex -184.961182 10.815436 14.960934
        vertex -184.961151 10.815412 -0.039063
        endloop
    endfacet
    facet normal 0.342016 -0.939694 0.000002
      outer loop
        vertex -184.961182 10.815436 14.960934
        vertex -208.453522 2.265033 14.960934
        vertex -208.453491 2.265008 -0.039063
        endloop
    endfacet
    facet normal -0.958701 0.284416 -0.000002
      outer loop
        vertex -208.453522 2.265033 14.960934
        vertex -203.378586 19.371483 14.960934
        vertex -203.378555 19.371458 -0.039063
        endloop
    endfacet
    facet normal -0.657023 0.753871 -0.000003
      outer loop
        vertex -203.378586 19.371483 14.960934
        vertex -194.149429 27.414989 14.960934
        vertex -194.149399 27.414965 -0.039063
        endloop
    endfacet
    facet normal -0.159957 0.987124 -0.000002
      outer loop
        vertex -194.149429 27.414989 14.960934
        vertex -177.004913 30.193153 14.960934
        vertex -177.004883 30.193129 -0.039063
        endloop
    endfacet
    facet normal 0.000000 0.000000 1.000000
      outer loop
        vertex -203.378586 19.371483 14.960934
        vertex -208.453522 2.265033 14.960934
        vertex -184.961182 10.815436 14.960934
        endloop
    endfacet
    facet normal 0.000000 0.000000 1.000000
      outer loop
        vertex -177.004913 30.193153 14.960934
        vertex -184.961182 10.815436 14.960934
        vertex -141.484802 14.765016 14.960935
        endloop
    endfacet
    facet normal 0.000000 0.000000 1.000000
      outer loop
        vertex -141.484802 -10.234949 14.960935
        vertex -141.484802 14.765016 14.960935
        vertex -184.961182 10.815436 14.960934
        endloop
    endfacet
    facet normal 0.000000 0.000000 1.000000
      outer loop
        vertex -17.142414 17.101746 14.960935
        vertex -16.906204 4.530047 14.960935
        vertex -14.641183 8.453076 14.960935
        endloop
    endfacet
    facet normal 0.000000 0.000000 1.000000
      outer loop
        vertex -8.452966 17.265015 14.960935
        vertex -14.641183 8.453076 14.960935
        vertex -10.717985 10.718088 14.960935
        endloop
    endfacet
    facet normal 0.000000 0.000000 1.000000
      outer loop
        vertex -4.433790 17.265015 14.960935
        vertex -10.717985 10.718088 14.960935
        vertex -6.187944 10.718088 14.960935
        endloop
    endfacet
    facet normal 0.000000 0.000000 1.000000
      outer loop
        vertex 0.000124 4.530048 14.960935
        vertex 6.547078 6.284196 14.960935
        vertex 2.527748 13.245703 14.960935
        endloop
    endfacet
    facet normal 0.000000 0.000000 1.000000
      outer loop
        vertex 0.000125 0.000025 14.960935
        vertex 6.547079 -1.754275 14.960935
        vertex 6.547078 6.284196 14.960935
        endloop
    endfacet
    facet normal 0.000000 0.000000 1.000000
      outer loop
        vertex -14.641180 -3.923156 14.960935
        vertex -17.142408 -12.571673 14.960935
        vertex -8.452961 -12.734942 14.960935
        endloop
    endfacet
    facet normal 0.000000 0.000000 1.000000
      outer loop
        vertex -10.717982 -6.188168 14.960935
        vertex -8.452961 -12.734942 14.960935
        vertex -4.433784 -12.734942 14.960935
        endloop
    endfacet
    facet normal 0.000000 0.000000 1.000000
      outer loop
        vertex -6.187941 -6.188168 14.960935
        vertex -4.433784 -12.734942 14.960935
        vertex 2.527751 -8.715783 14.960935
        endloop
    endfacet
    facet normal 0.000000 0.000000 1.000000
      outer loop
        vertex 2.527751 -8.715783 14.960935
        vertex 0.000125 0.000025 14.960935
        vertex -2.264895 -3.923156 14.960935
        endloop
    endfacet
    facet normal 0.000000 0.000000 1.000000
      outer loop
        vertex -141.484802 14.765016 14.960935
        vertex -141.484802 -10.234949 14.960935
        vertex -17.142408 -12.571673 14.960935
        endloop
    endfacet
    facet normal 0.000000 0.000000 1.000000
      outer loop
        vertex -179.010071 -5.535098 13.710934
        vertex -192.924454 -20.213728 13.710934
        vertex -181.627579 -21.154583 13.710934
        endloop
    endfacet
    facet normal 0.000000 0.000000 1.000000
      outer loop
        vertex -177.004883 30.193129 -0.039063
        vertex -184.961151 10.815412 -0.039063
        vertex -141.484772 14.764991 -0.039063
        endloop
    endfacet
    facet normal 0.000000 0.000000 1.000000
      outer loop
        vertex -141.484772 -10.234974 -0.039063
        vertex -141.484772 14.764991 -0.039063
        vertex -184.961151 10.815412 -0.039063
        endloop
    endfacet
    facet normal 0.000000 0.000000 1.000000
      outer loop
        vertex -203.378555 19.371458 -0.039063
        vertex -208.453491 2.265008 -0.039063
        vertex -184.961151 10.815412 -0.039063
        endloop
    endfacet
    facet normal 0.000000 0.000000 1.000000
      outer loop
        vertex -141.484772 14.764991 -0.039063
        vertex -141.484772 -10.234974 -0.039063
        vertex -17.142382 -12.571698 -0.039063
        endloop
    endfacet
    facet normal 0.000000 0.000000 1.000000
      outer loop
        vertex -14.641154 -3.923182 -0.039063
        vertex -17.142382 -12.571698 -0.039063
        vertex -8.452935 -12.734967 -0.039063
        endloop
    endfacet
    facet normal 0.000000 0.000000 1.000000
      outer loop
        vertex 2.527777 -8.715808 -0.039062
        vertex 0.000151 0.000000 -0.039062
        vertex -2.264869 -3.923182 -0.039062
        endloop
    endfacet
    facet normal 0.000000 0.000000 1.000000
      outer loop
        vertex 0.000151 0.000000 -0.039062
        vertex 6.547105 -1.754300 -0.039062
        vertex 6.547104 6.284171 -0.039062
        endloop
    endfacet
    facet normal 0.000000 0.000000 1.000000
      outer loop
        vertex -6.187915 -6.188193 -0.039063
        vertex -4.433758 -12.734967 -0.039063
        vertex 2.527777 -8.715808 -0.039062
        endloop
    endfacet
    facet normal 0.000000 0.000000 1.000000
      outer loop
        vertex -10.717957 -6.188193 -0.039063
        vertex -8.452935 -12.734967 -0.039063
        vertex -4.433758 -12.734967 -0.039063
        endloop
    endfacet
    facet normal 0.000000 0.000000 1.000000
      outer loop
        vertex -17.142387 17.101721 -0.039063
        vertex -16.906178 4.530022 -0.039063
        vertex -14.641157 8.453052 -0.039063
        endloop
    endfacet
    facet normal 0.000000 0.000000 1.000000
      outer loop
        vertex -4.433764 17.264990 -0.039063
        vertex -10.717959 10.718063 -0.039063
        vertex -6.187918 10.718063 -0.039063
        endloop
    endfacet
    facet normal 0.000000 0.000000 1.000000
      outer loop
        vertex -8.452940 17.264990 -0.039063
        vertex -14.641157 8.453052 -0.039063
        vertex -10.717959 10.718063 -0.039063
        endloop
    endfacet
    facet normal 0.000000 0.000000 1.000000
      outer loop
        vertex 0.000150 4.530023 -0.039062
        vertex 6.547104 6.284171 -0.039062
        vertex 2.527774 13.245678 -0.039062
        endloop
    endfacet
    facet normal 0.000000 0.000000 -1.000000
      outer loop
        vertex -192.924423 -20.213749 1.210937
        vertex -202.502396 -14.085675 1.210937
        vertex -179.010040 -5.535119 1.210937
        endloop
    endfacet
 endsolid
